<?xml version="1.0" standalone="no"?>
<!DOCTYPE svg PUBLIC "-//W3C//DTD SVG 20010904//EN"
 "http://www.w3.org/TR/2001/REC-SVG-20010904/DTD/svg10.dtd">
<svg version="1.0" xmlns="http://www.w3.org/2000/svg"
 width="700.000000pt" height="700.000000pt" viewBox="0 0 700.000000 700.000000"
 preserveAspectRatio="xMidYMid meet">

<g transform="translate(0.000000,700.000000) scale(0.100000,-0.100000)"
fill="#000000" stroke="none">
<path d="M0 3500 l0 -3500 3500 0 3500 0 0 3500 0 3500 -3500 0 -3500 0 0
-3500z m3970 2802 c0 -5 -12 -14 -27 -21 l-28 -11 24 20 c26 22 31 24 31 12z
m60 -5 c0 -2 -15 -14 -32 -27 -27 -19 -30 -20 -18 -4 21 27 50 45 50 31z m25
-37 c-10 -11 -20 -18 -23 -15 -3 3 3 14 13 25 10 11 20 18 23 15 3 -3 -3 -14
-13 -25z m43 -19 c-13 -15 -25 -27 -26 -25 -6 4 32 53 41 54 5 0 -2 -13 -15
-29z m53 -13 c-11 -18 -21 -27 -21 -20 0 16 31 64 38 58 2 -3 -5 -20 -17 -38z
m69 15 c0 -5 -7 -17 -15 -27 -15 -20 -20 -10 -9 18 6 16 24 22 24 9z m38 -33
c-14 -22 -24 -19 -15 5 4 8 11 15 17 15 6 0 6 -7 -2 -20z m44 -32 c-6 -6 -8
-1 -7 14 4 39 8 44 12 19 3 -13 0 -28 -5 -33z m51 -9 c-6 -6 -9 -1 -7 13 3 33
6 36 11 14 3 -10 1 -22 -4 -27z m51 -9 c-6 -6 -10 -2 -11 12 -2 16 1 18 10 9
7 -7 8 -14 1 -21z m-1854 16 c0 -3 -4 -8 -10 -11 -5 -3 -10 -1 -10 4 0 6 5 11
10 11 6 0 10 -2 10 -4z m1903 -11 c4 -8 2 -17 -3 -20 -6 -4 -10 3 -10 14 0 25
6 27 13 6z m-1933 -5 c0 -5 -4 -10 -10 -10 -5 0 -10 5 -10 10 0 6 5 10 10 10
6 0 10 -4 10 -10z m-30 -10 c0 -5 -4 -10 -10 -10 -5 0 -10 5 -10 10 0 6 5 10
10 10 6 0 10 -4 10 -10z m2007 -22 c-3 -7 -5 -2 -5 12 0 14 2 19 5 13 2 -7 2
-19 0 -25z m-2042 12 c3 -5 1 -10 -4 -10 -6 0 -11 5 -11 10 0 6 2 10 4 10 3 0
8 -4 11 -10z m2097 -35 c9 -20 9 -20 -6 -1 -9 11 -16 27 -15 35 0 14 1 14 6 1
3 -8 10 -24 15 -35z m-2122 21 c0 -3 -4 -8 -10 -11 -5 -3 -10 -1 -10 4 0 6 5
11 10 11 6 0 10 -2 10 -4z m2208 -32 c7 -13 9 -24 6 -24 -7 0 -43 43 -44 52 0
16 28 -5 38 -28z m-2258 6 c-14 -11 -31 -20 -37 -20 -7 0 -13 -5 -13 -11 0 -6
-6 -9 -14 -6 -8 3 -17 -1 -20 -9 -3 -8 -9 -14 -13 -13 -16 2 -53 -14 -53 -23
0 -6 -7 -8 -15 -4 -8 3 -15 1 -15 -4 0 -6 -7 -10 -15 -10 -8 0 -15 -7 -15 -16
0 -10 -6 -14 -14 -11 -8 3 -23 -3 -35 -14 -12 -11 -26 -17 -32 -14 -6 4 -13
-3 -16 -15 -3 -13 -11 -19 -19 -16 -8 3 -14 1 -14 -4 0 -6 -7 -10 -15 -10 -8
0 -15 -7 -15 -15 0 -8 -5 -15 -11 -15 -5 0 -7 6 -4 13 4 6 0 4 -7 -5 -8 -9
-26 -20 -41 -23 -15 -4 -27 -13 -27 -21 0 -8 -6 -15 -12 -16 -7 0 -18 -2 -24
-2 -7 -1 -27 -14 -45 -29 -18 -15 -40 -27 -48 -26 -10 0 -8 3 6 9 12 5 25 15
30 23 7 13 136 107 146 107 3 0 29 16 58 36 58 39 345 184 363 184 6 0 0 -9
-14 -20z m2210 10 c0 -5 -2 -10 -4 -10 -3 0 -8 5 -11 10 -3 6 -1 10 4 10 6 0
11 -4 11 -10z m99 -59 c0 -11 -3 -10 -9 5 -5 12 -13 25 -19 29 -6 3 -11 12
-11 18 1 7 10 1 20 -12 11 -13 20 -31 19 -40z m102 -8 c43 -21 79 -41 79 -44
0 -4 -7 -10 -16 -13 -10 -4 -13 -2 -8 6 5 7 0 9 -14 6 -15 -4 -19 -2 -15 9 4
11 1 14 -8 11 -8 -3 -19 2 -26 11 -8 11 -12 12 -13 4 0 -18 -20 -16 -20 2 0 8
-4 15 -10 15 -5 0 -10 -5 -10 -12 0 -12 -29 21 -30 35 0 12 8 9 91 -30z m113
-49 c20 -8 21 -30 2 -37 -11 -4 -13 -1 -9 10 5 13 3 14 -16 3 -21 -11 -22 -10
-11 9 12 23 12 23 34 15z m66 -45 c0 -6 -6 -9 -12 -6 -7 2 -22 0 -33 -6 -18
-9 -19 -9 -6 6 15 19 51 23 51 6z m-165 -19 c3 -5 -1 -10 -10 -10 -9 0 -13 5
-10 10 3 6 8 10 10 10 2 0 7 -4 10 -10z m54 -14 c9 -10 8 -15 -4 -20 -8 -3
-15 -4 -15 -2 0 3 -3 11 -6 20 -8 20 9 21 25 2z m150 5 c7 -5 9 -11 5 -14 -5
-3 -15 1 -22 9 -14 16 -5 18 17 5z m51 -26 c14 -16 10 -18 -14 -9 -9 3 -16 10
-16 15 0 14 16 11 30 -6z m-132 -19 c20 -13 53 -41 73 -62 38 -41 109 -156
109 -177 0 -7 -18 20 -39 58 -38 69 -95 135 -140 165 -41 27 -56 39 -48 40 4
0 24 -11 45 -24z m181 -30 c-1 -17 -2 -18 -6 -3 -4 14 -8 16 -19 6 -11 -9 -14
-8 -14 3 0 20 9 28 26 21 8 -3 13 -15 13 -27z m134 -80 c62 -46 144 -114 182
-150 39 -36 74 -66 79 -66 4 0 6 -7 3 -14 -4 -9 -1 -13 6 -10 10 4 103 -90
160 -162 22 -29 17 -30 -24 -5 -19 12 -26 20 -17 23 8 3 0 11 -19 22 -18 9
-33 19 -33 22 0 3 5 2 10 -1 6 -3 10 -2 10 3 0 5 -15 17 -34 27 -19 11 -33 22
-30 27 3 4 -6 13 -20 19 -13 6 -27 20 -29 30 -5 20 -27 27 -27 9 0 -5 -4 -10
-9 -10 -4 0 -6 11 -4 25 4 19 0 27 -21 36 -14 7 -26 16 -26 21 0 5 -4 6 -10 3
-6 -4 -7 1 -3 11 4 12 3 15 -6 10 -7 -5 -20 1 -31 14 -10 12 -24 19 -29 15 -6
-3 -11 0 -11 8 0 8 -6 20 -14 26 -11 10 -17 8 -25 -6 -9 -16 -10 -16 -11 5 0
13 -6 30 -14 38 -13 12 -16 12 -25 -3 -9 -16 -10 -15 -11 8 0 37 -25 56 -39
32 -9 -15 -10 -12 -4 12 6 27 5 29 -11 16 -14 -12 -16 -12 -10 3 3 9 1 16 -5
16 -6 0 -11 -4 -11 -10 0 -5 -4 -10 -9 -10 -4 0 -6 11 -3 25 2 14 6 25 9 25 2
0 55 -38 116 -84z m-1273 -10 c0 -3 -4 -8 -10 -11 -5 -3 -10 -1 -10 4 0 6 5
11 10 11 6 0 10 -2 10 -4z m70 -6 c0 -5 -5 -10 -11 -10 -5 0 -7 5 -4 10 3 6 8
10 11 10 2 0 4 -4 4 -10z m-2260 -9 c0 -5 -7 -11 -14 -14 -10 -4 -13 -1 -9 9
6 15 23 19 23 5z m-44 -20 c-4 -5 -1 -12 4 -14 6 -3 5 -4 -2 -3 -7 2 -18 -9
-25 -23 -8 -20 -12 -21 -12 -8 -1 10 -6 15 -12 12 -6 -4 -8 -13 -5 -20 3 -9
-6 -16 -25 -20 -28 -6 -33 -17 -32 -62 1 -20 -14 -15 -20 6 -6 23 14 49 78
100 52 42 60 47 51 32z m-67 -102 c-16 -10 -23 -4 -14 10 3 6 11 8 17 5 6 -4
5 -9 -3 -15z m-86 -60 c5 -18 2 -26 -7 -26 -12 0 -13 10 -7 51 2 14 7 4 14
-25z m3203 -1 l29 -33 -32 29 c-31 28 -38 36 -30 36 2 0 16 -15 33 -32z
m-1138 12 c124 -10 306 -37 397 -60 22 -5 54 -10 71 -10 18 0 34 -6 37 -13 2
-7 33 -19 68 -26 35 -8 71 -19 79 -26 8 -7 56 -32 105 -56 50 -24 124 -64 165
-89 41 -26 86 -53 100 -61 14 -8 27 -16 30 -19 17 -20 71 -50 79 -45 5 3 12
-3 16 -14 3 -11 22 -32 43 -47 20 -16 53 -43 72 -61 19 -18 41 -31 48 -28 7 3
12 -4 13 -18 0 -21 1 -21 9 -2 8 18 9 18 10 -5 0 -17 24 -49 69 -96 38 -39 77
-83 86 -98 21 -32 27 -28 36 27 6 40 7 39 8 -19 1 -53 5 -65 30 -91 16 -17 32
-40 36 -52 3 -12 21 -44 38 -71 90 -140 107 -170 107 -190 0 -14 8 -24 21 -27
13 -4 18 -11 14 -21 -8 -23 35 -121 57 -128 14 -4 16 -9 8 -18 -7 -10 -6 -25
5 -56 8 -23 15 -51 15 -62 0 -12 6 -18 16 -16 10 2 19 -3 22 -11 3 -10 0 -12
-11 -8 -16 6 -16 -2 3 -48 5 -11 18 -80 30 -152 37 -227 37 -553 -1 -743 -6
-30 -12 -69 -13 -87 -2 -18 -8 -45 -14 -60 -6 -15 -22 -64 -35 -108 -27 -87
-54 -159 -93 -244 -14 -29 -23 -59 -21 -65 2 -6 -11 -29 -30 -51 -18 -21 -31
-45 -29 -51 3 -7 1 -14 -3 -16 -12 -5 -81 -104 -81 -116 0 -6 -8 -19 -18 -29
-10 -10 -38 -45 -62 -78 -43 -58 -296 -316 -376 -383 l-39 -33 35 6 c27 4 32
3 22 -7 -6 -6 -29 -11 -49 -11 -21 1 -46 -6 -58 -14 -20 -15 -20 -15 0 -8 46
16 49 16 20 -2 -16 -10 -54 -29 -82 -42 -29 -14 -53 -28 -53 -33 0 -4 -7 -8
-15 -8 -8 0 -15 -4 -15 -10 0 -5 -6 -10 -12 -10 -7 0 -53 -20 -103 -45 -49
-25 -95 -45 -101 -45 -26 0 -24 -20 3 -35 15 -9 19 -13 8 -9 -48 16 -69 14
-167 -19 -121 -40 -163 -52 -238 -67 -30 -6 -74 -15 -98 -21 -23 -5 -58 -9
-78 -9 -28 0 -44 -8 -70 -34 -19 -19 -34 -31 -34 -26 0 4 7 13 15 20 29 24 15
31 -52 26 -114 -9 -360 -15 -328 -7 l30 7 -34 7 c-18 4 -57 7 -87 7 -29 0 -56
4 -59 10 -3 5 -21 10 -40 10 -19 0 -44 4 -57 9 -13 5 -48 14 -78 21 -59 14
-161 45 -197 60 -13 6 -33 14 -45 19 -46 18 -105 45 -183 82 -44 22 -86 39
-92 39 -7 0 -13 5 -13 10 0 6 -12 16 -27 23 -16 6 -32 17 -36 24 -4 7 -12 13
-17 13 -25 0 -223 154 -336 261 -34 32 -65 55 -69 51 -5 -4 -5 -2 -2 4 4 6
-19 42 -51 80 -143 172 -213 280 -302 468 -102 214 -150 388 -192 696 -14 100
-8 354 11 475 27 177 31 150 -44 277 -68 115 -165 305 -165 323 0 5 31 -51 69
-126 70 -139 154 -279 168 -279 12 0 66 237 58 251 -6 9 -3 11 8 6 14 -5 15
-2 6 20 -8 21 -7 24 4 15 10 -9 17 0 32 46 10 31 25 71 34 87 8 17 14 44 13
60 -1 23 0 25 6 12 10 -24 9 -25 100 129 40 66 94 148 121 181 28 34 57 76 67
95 9 18 34 48 56 67 24 21 37 39 34 50 -4 12 9 22 45 40 36 17 54 32 61 52 6
16 17 29 26 29 10 0 52 27 95 60 42 33 80 60 82 60 3 0 24 11 46 26 88 55 337
186 380 199 13 4 38 13 54 20 27 12 72 26 220 66 22 6 53 15 68 20 16 5 99 13
185 19 86 6 162 13 167 15 18 6 79 5 213 -5z m-2105 -51 c-6 -6 -9 -19 -6 -28
4 -11 1 -10 -10 4 -11 15 -12 22 -4 27 18 12 32 9 20 -3z m3323 -72 c14 -27
23 -52 20 -55 -3 -3 -6 -1 -6 4 0 6 -16 36 -35 68 -19 32 -28 53 -19 45 8 -7
27 -35 40 -62z m-3366 28 c-7 -9 -15 -13 -19 -10 -3 3 1 10 9 15 21 14 24 12
10 -5z m3398 -30 c-3 -3 -9 2 -12 12 -6 14 -5 15 5 6 7 -7 10 -15 7 -18z
m-3438 -15 c0 -5 -5 -10 -11 -10 -5 0 -7 5 -4 10 3 6 8 10 11 10 2 0 4 -4 4
-10z m3469 -60 c0 -10 -3 -8 -9 5 -12 27 -12 43 0 25 5 -8 9 -22 9 -30z m258
-18 c1 -15 4 -112 7 -217 l4 -190 -7 170 c-5 94 -11 195 -16 225 -4 30 -4 52
1 47 4 -4 9 -19 11 -35z m-268 -42 c0 -8 -7 1 -14 20 -18 46 -17 64 0 25 8
-16 14 -37 14 -45z m803 -7 c9 -11 1 -10 -30 6 -23 12 -42 23 -42 26 0 9 60
-18 72 -32z m-795 -35 c-3 -8 -6 -5 -6 6 -1 11 2 17 5 13 3 -3 4 -12 1 -19z
m788 4 c-3 -3 -11 0 -18 7 -9 10 -8 11 6 5 10 -3 15 -9 12 -12z m49 -17 c11
-8 18 -17 15 -19 -2 -3 -15 4 -29 14 -14 11 -20 20 -15 19 6 0 19 -6 29 -14z
m-827 -27 c-3 -8 -6 -5 -6 6 -1 11 2 17 5 13 3 -3 4 -12 1 -19z m863 -29 c17
-13 18 -17 5 -10 -33 17 -51 31 -40 31 6 0 21 -10 35 -21z m-4593 -41 c-3 -8
-6 -5 -6 6 -1 11 2 17 5 13 3 -3 4 -12 1 -19z m4631 -6 c12 -8 22 -21 22 -29
0 -8 10 -23 23 -34 12 -10 17 -18 10 -19 -6 0 -15 5 -19 11 -3 6 -20 17 -38
25 -27 12 -28 13 -8 14 30 0 20 15 -26 40 -25 14 -29 18 -12 14 14 -4 35 -14
48 -22z m-4661 -42 c1 -11 -2 -18 -8 -15 -11 7 -12 35 -1 35 4 0 8 -9 9 -20z
m118 -10 c-3 -5 -10 -10 -16 -10 -5 0 -9 5 -9 10 0 6 7 10 16 10 8 0 12 -4 9
-10z m-153 -35 c3 -13 1 -22 -3 -19 -9 5 -13 44 -5 44 2 0 6 -11 8 -25z m103
-5 c-3 -5 -11 -10 -16 -10 -6 0 -7 5 -4 10 3 6 11 10 16 10 6 0 7 -4 4 -10z
m4651 -6 c21 -10 34 -24 34 -35 0 -10 9 -23 20 -29 11 -6 20 -19 20 -29 0 -10
7 -24 15 -31 9 -7 14 -18 11 -25 -2 -6 5 -17 15 -23 10 -7 19 -19 19 -27 0
-15 -46 -32 -57 -21 -4 3 3 6 15 6 25 0 30 25 7 34 -8 3 -15 15 -15 26 0 11
-7 23 -15 26 -8 4 -15 17 -15 30 0 17 -8 28 -27 35 -19 7 -23 13 -15 18 13 8
-3 27 -43 49 -31 17 -7 14 31 -4z m-4786 -45 c0 -11 -4 -17 -10 -14 -5 3 -10
13 -10 21 0 8 5 14 10 14 6 0 10 -9 10 -21z m86 -7 c-18 -16 -18 -16 -6 6 6
13 14 21 18 18 3 -4 -2 -14 -12 -24z m-118 -38 c0 -17 -4 -22 -11 -15 -5 5 -7
17 -4 25 9 23 15 19 15 -10z m94 -6 c-7 -7 -12 -8 -12 -2 0 14 12 26 19 19 2
-3 -1 -11 -7 -17z m4298 8 c0 -3 -4 -8 -10 -11 -5 -3 -10 -1 -10 4 0 6 5 11
10 11 6 0 10 -2 10 -4z m-4315 -53 c-4 -16 -11 -73 -16 -128 l-7 -100 3 110
c2 101 9 145 22 145 3 0 2 -12 -2 -27z m-109 -3 c0 -11 -4 -20 -8 -20 -4 0 -8
9 -8 20 0 11 4 20 8 20 4 0 8 -9 8 -20z m4924 -20 c0 -5 -2 -10 -4 -10 -3 0
-8 5 -11 10 -3 6 -1 10 4 10 6 0 11 -4 11 -10z m-4950 -54 c0 -5 -7 -3 -15 4
-8 7 -12 17 -9 22 7 10 24 -9 24 -26z m473 19 c-3 -9 -8 -14 -10 -11 -3 3 -2
9 2 15 9 16 15 13 8 -4z m3932 -15 c3 -5 1 -10 -4 -10 -6 0 -11 5 -11 10 0 6
2 10 4 10 3 0 8 -4 11 -10z m624 -19 c8 -5 11 -16 7 -29 -5 -15 -2 -22 14 -27
23 -7 25 -16 8 -33 -8 -8 -5 -14 16 -22 24 -9 26 -13 15 -26 -12 -14 -14 -14
-21 5 -4 12 -16 21 -27 21 -11 0 -28 3 -38 7 -15 6 -13 8 11 13 43 7 44 28 2
36 -20 3 -39 10 -41 15 -3 4 3 6 15 4 25 -5 35 11 20 30 -14 16 -3 20 19 6z
m-4588 -24 c-10 -9 -11 -8 -5 6 3 10 9 15 12 12 3 -3 0 -11 -7 -18z m-471 -8
c0 -6 -4 -7 -10 -4 -5 3 -10 11 -10 16 0 6 5 7 10 4 6 -3 10 -11 10 -16z m-30
-50 c0 -5 -4 -9 -10 -9 -5 0 -10 7 -10 16 0 8 5 12 10 9 6 -3 10 -10 10 -16z
m477 -142 c-2 -23 -3 -1 -3 48 0 50 1 68 3 42 2 -26 2 -67 0 -90z m4188 103
c3 -5 1 -10 -4 -10 -6 0 -11 5 -11 10 0 6 2 10 4 10 3 0 8 -4 11 -10z m-4691
-16 c4 -10 1 -14 -6 -12 -15 5 -23 28 -10 28 5 0 13 -7 16 -16z m5189 -30 c21
-7 23 -34 1 -34 -8 0 -13 4 -10 9 4 5 -13 16 -36 25 -41 15 -41 16 -8 10 19
-3 43 -8 53 -10z m-5209 -19 c-6 -16 -24 -21 -24 -7 0 11 11 22 21 22 5 0 6
-7 3 -15z m493 -52 c-3 -10 -5 -2 -5 17 0 19 2 27 5 18 2 -10 2 -26 0 -35z
m-507 10 c-1 -18 -19 -35 -29 -28 -9 5 -7 11 6 21 21 16 23 16 23 7z m5249 -6
c6 -8 8 -17 4 -20 -10 -11 -23 -8 -20 5 1 6 -9 15 -23 19 l-25 7 26 1 c15 1
32 -5 38 -12z m-659 -17 c0 -5 -2 -10 -4 -10 -3 0 -8 5 -11 10 -3 6 -1 10 4
10 6 0 11 -4 11 -10z m50 0 c0 -5 -5 -10 -11 -10 -5 0 -7 5 -4 10 3 6 8 10 11
10 2 0 4 -4 4 -10z m-4112 -85 c0 -16 -2 -15 -8 5 -4 14 -8 34 -8 45 0 16 2
15 8 -5 4 -14 8 -34 8 -45z m30 -10 c0 -16 -2 -15 -8 5 -4 14 -8 36 -8 50 0
22 1 22 8 -5 4 -16 8 -39 8 -50z m-574 50 c-22 -16 -44 -19 -44 -6 0 9 21 18
49 20 10 1 9 -4 -5 -14z m5296 5 c28 -17 1 -22 -37 -7 l-38 16 30 0 c17 1 37
-3 45 -9z m-635 -30 c3 -5 1 -10 -4 -10 -6 0 -11 5 -11 10 0 6 2 10 4 10 3 0
8 -4 11 -10z m655 -30 c27 -17 -14 -22 -46 -5 l-29 15 30 0 c17 0 37 -4 45
-10z m-5345 -10 c-3 -5 -13 -10 -21 -10 -8 0 -14 5 -14 10 0 6 9 10 21 10 11
0 17 -4 14 -10z m624 -60 c0 -9 -4 -8 -9 5 -5 11 -9 27 -9 35 0 9 4 8 9 -5 5
-11 9 -27 9 -35z m3971 30 c0 -5 -4 -10 -10 -10 -5 0 -10 5 -10 10 0 6 5 10
10 10 6 0 10 -4 10 -10z m50 0 c0 -5 -4 -10 -10 -10 -5 0 -10 5 -10 10 0 6 5
10 10 10 6 0 10 -4 10 -10z m50 0 c0 -5 -5 -10 -11 -10 -5 0 -7 5 -4 10 3 6 8
10 11 10 2 0 4 -4 4 -10z m679 -26 c2 -2 2 -7 -2 -10 -9 -9 -67 6 -67 18 0 9
58 2 69 -8z m-5399 -4 c0 -5 -4 -10 -10 -10 -5 0 -10 5 -10 10 0 6 5 10 10 10
6 0 10 -4 10 -10z m400 -25 c0 -5 -5 -3 -10 5 -5 8 -10 20 -10 25 0 6 5 3 10
-5 5 -8 10 -19 10 -25z m4265 -15 c3 -5 -1 -10 -10 -10 -9 0 -13 5 -10 10 3 6
8 10 10 10 2 0 7 -4 10 -10z m50 0 c3 -5 1 -10 -4 -10 -6 0 -11 5 -11 10 0 6
2 10 4 10 3 0 8 -4 11 -10z m-4735 -20 c0 -5 -4 -10 -10 -10 -5 0 -10 5 -10
10 0 6 5 10 10 10 6 0 10 -4 10 -10z m5440 0 c0 -6 -19 -7 -47 -3 -65 8 -67
13 -5 13 29 0 52 -4 52 -10z m-645 -50 c3 -5 1 -10 -4 -10 -6 0 -11 5 -11 10
0 6 2 10 4 10 3 0 8 -4 11 -10z m-4805 -10 c0 -5 -4 -10 -9 -10 -6 0 -13 5
-16 10 -3 6 1 10 9 10 9 0 16 -4 16 -10z m5470 0 c0 -12 -34 -12 -70 0 -20 7
-16 8 23 9 26 1 47 -3 47 -9z m-5480 -60 c0 -5 -4 -10 -9 -10 -6 0 -13 5 -16
10 -3 6 1 10 9 10 9 0 16 -4 16 -10z m5500 0 c0 -5 -18 -10 -40 -10 -22 0 -40
5 -40 10 0 6 18 10 40 10 22 0 40 -4 40 -10z m-590 -10 c0 -5 -2 -10 -4 -10
-3 0 -8 5 -11 10 -3 6 -1 10 4 10 6 0 11 -4 11 -10z m-4940 -50 c0 -5 -2 -10
-4 -10 -3 0 -8 5 -11 10 -3 6 -1 10 4 10 6 0 11 -4 11 -10z m5540 0 c0 -5 -19
-10 -42 -9 -33 0 -38 2 -23 9 28 12 65 12 65 0z m-750 -20 c0 -5 -4 -10 -10
-10 -5 0 -10 5 -10 10 0 6 5 10 10 10 6 0 10 -4 10 -10z m200 0 c0 -5 -4 -10
-10 -10 -5 0 -10 5 -10 10 0 6 5 10 10 10 6 0 10 -4 10 -10z m40 0 c0 -5 -2
-10 -4 -10 -3 0 -8 5 -11 10 -3 6 -1 10 4 10 6 0 11 -4 11 -10z m-5045 -40 c3
-5 1 -10 -4 -10 -6 0 -11 5 -11 10 0 6 2 10 4 10 3 0 8 -4 11 -10z m5575 1 c0
-5 -13 -11 -30 -13 -29 -4 -37 1 -23 15 10 10 53 8 53 -2z m-520 -31 c0 -5 -4
-10 -10 -10 -5 0 -10 5 -10 10 0 6 5 10 10 10 6 0 10 -4 10 -10z m40 0 c0 -5
-2 -10 -4 -10 -3 0 -8 5 -11 10 -3 6 -1 10 4 10 6 0 11 -4 11 -10z m-5104 -48
c-9 -9 -37 8 -31 18 5 8 11 7 21 -1 8 -6 12 -14 10 -17z m5592 16 c-3 -7 -22
-14 -44 -15 -21 0 -29 1 -16 4 12 2 22 9 22 14 0 5 9 9 21 9 12 0 19 -5 17
-12z m-488 -38 c0 -5 -5 -10 -11 -10 -5 0 -7 5 -4 10 3 6 8 10 11 10 2 0 4 -4
4 -10z m-230 -10 c0 -5 -4 -10 -10 -10 -5 0 -10 5 -10 10 0 6 5 10 10 10 6 0
10 -4 10 -10z m50 6 c0 -3 -4 -8 -10 -11 -5 -3 -10 -1 -10 4 0 6 5 11 10 11 6
0 10 -2 10 -4z m680 -20 c0 -8 -15 -17 -36 -21 -42 -7 -57 -1 -19 9 14 4 25
11 25 16 0 6 7 10 15 10 8 0 15 -6 15 -14z m-5625 -6 c3 -5 -1 -10 -9 -10 -9
0 -16 5 -16 10 0 6 4 10 9 10 6 0 13 -4 16 -10z m5170 -40 c3 -5 1 -10 -4 -10
-6 0 -11 5 -11 10 0 6 2 10 4 10 3 0 8 -4 11 -10z m-175 -10 c0 -5 -4 -10 -10
-10 -5 0 -10 5 -10 10 0 6 5 10 10 10 6 0 10 -4 10 -10z m640 -4 c0 -15 -21
-26 -48 -26 -13 1 -11 4 6 13 12 7 19 16 16 20 -4 4 0 7 9 7 10 0 17 -6 17
-14z m6 -57 c9 -16 -7 -28 -46 -34 l-35 -6 33 15 c18 9 31 20 27 26 -3 5 -2
10 4 10 5 0 13 -5 17 -11z m-506 -3 c0 -3 -4 -8 -10 -11 -5 -3 -10 -1 -10 4 0
6 5 11 10 11 6 0 10 -2 10 -4z m-240 -16 c0 -5 -4 -10 -10 -10 -5 0 -10 5 -10
10 0 6 5 10 10 10 6 0 10 -4 10 -10z m50 0 c0 -5 -2 -10 -4 -10 -3 0 -8 5 -11
10 -3 6 -1 10 4 10 6 0 11 -4 11 -10z m700 -65 c-7 -8 -22 -15 -34 -14 -21 0
-21 0 2 11 12 6 22 18 22 27 0 11 3 12 12 3 8 -8 8 -15 -2 -27z m-470 5 c0 -5
-4 -10 -10 -10 -5 0 -10 5 -10 10 0 6 5 10 10 10 6 0 10 -4 10 -10z m40 0 c0
-5 -2 -10 -4 -10 -3 0 -8 5 -11 10 -3 6 -1 10 4 10 6 0 11 -4 11 -10z m440
-55 c0 -15 -30 -35 -52 -34 -7 0 -3 5 10 11 12 6 22 17 22 25 0 7 5 13 10 13
6 0 10 -7 10 -15z m10 -64 c0 -14 -23 -29 -55 -36 l-30 -6 33 17 c17 9 32 20
32 25 0 5 5 9 10 9 6 0 10 -4 10 -9z m-415 -21 c3 -5 1 -10 -4 -10 -6 0 -11 5
-11 10 0 6 2 10 4 10 3 0 8 -4 11 -10z m-205 -20 c0 -5 -4 -10 -10 -10 -5 0
-10 5 -10 10 0 6 5 10 10 10 6 0 10 -4 10 -10z m620 -26 c0 -14 -56 -44 -82
-44 -7 1 1 7 17 14 17 7 36 20 44 29 17 21 21 21 21 1z m-450 -34 c0 -5 -4
-10 -10 -10 -5 0 -10 5 -10 10 0 6 5 10 10 10 6 0 10 -4 10 -10z m-40 -364 c0
-3 -4 -8 -10 -11 -5 -3 -10 -1 -10 4 0 6 5 11 10 11 6 0 10 -2 10 -4z m450
-136 c0 -5 -5 -10 -11 -10 -5 0 -7 5 -4 10 3 6 8 10 11 10 2 0 4 -4 4 -10z
m-159 -27 c-12 -20 -14 -14 -5 12 4 9 9 14 11 11 3 -2 0 -13 -6 -23z m141 -45
c-7 -7 -12 -8 -12 -2 0 14 12 26 19 19 2 -3 -1 -11 -7 -17z m-541 -15 c-5 -10
-17 -27 -26 -38 -16 -19 -17 -19 -3 5 26 46 29 50 34 50 3 0 0 -8 -5 -17z
m519 -58 c-7 -8 -17 -15 -22 -15 -6 0 -5 7 2 15 7 8 17 15 22 15 6 0 5 -7 -2
-15z m0 -49 c0 -2 -8 -10 -17 -17 -16 -13 -17 -12 -4 4 13 16 21 21 21 13z
m-25 -76 c-3 -5 -16 -15 -28 -21 -21 -10 -21 -9 2 10 25 23 36 27 26 11z m-1
-47 c-11 -15 -27 -29 -35 -32 -7 -2 0 12 16 31 34 40 49 41 19 1z m-13 -56
c-10 -9 -11 -8 -5 6 3 10 9 15 12 12 3 -3 0 -11 -7 -18z m-391 -131 c0 -2 -8
-10 -17 -17 -16 -13 -17 -12 -4 4 13 16 21 21 21 13z m-50 -50 c0 -2 -8 -10
-17 -17 -16 -13 -17 -12 -4 4 13 16 21 21 21 13z m-138 -138 c-37 -35 -81 -74
-97 -88 -17 -14 10 14 60 62 49 48 93 87 97 88 3 0 -24 -28 -60 -62z m-142
-121 c0 -2 -10 -12 -22 -23 l-23 -19 19 23 c18 21 26 27 26 19z m-50 -41 c0
-2 -8 -10 -17 -17 -16 -13 -17 -12 -4 4 13 16 21 21 21 13z m-40 -30 c0 -2 -8
-10 -17 -17 -16 -13 -17 -12 -4 4 13 16 21 21 21 13z m-70 -50 c0 -2 -8 -10
-17 -17 -16 -13 -17 -12 -4 4 13 16 21 21 21 13z m-45 -36 c-3 -5 -16 -15 -28
-21 -21 -10 -21 -9 2 10 25 23 36 27 26 11z m-4175 -215 c0 -8 6 -12 14 -9 8
3 16 1 20 -4 3 -5 -4 -8 -16 -7 -12 1 -25 11 -30 24 -5 14 -4 20 2 16 6 -3 10
-13 10 -20z m200 -60 c13 -14 21 -25 18 -25 -2 0 -15 11 -28 25 -13 14 -21 25
-18 25 2 0 15 -11 28 -25z m90 -71 c0 -3 -13 4 -30 16 -16 12 -30 24 -30 26 0
3 14 -4 30 -16 17 -12 30 -24 30 -26z m-175 -4 c-3 -5 -12 -10 -18 -10 -7 0
-6 4 3 10 19 12 23 12 15 0z m3668 -117 c-23 -2 -64 -2 -90 0 -26 2 -7 3 42 3
50 0 71 -1 48 -3z m-30 -30 c-7 -2 -19 -2 -25 0 -7 3 -2 5 12 5 14 0 19 -2 13
-5z m-3264 -275 c25 -21 42 -40 40 -42 -7 -7 -159 134 -159 146 0 6 17 -6 38
-28 20 -21 57 -56 81 -76z m3016 102 c13 -5 14 -9 5 -9 -8 0 -24 4 -35 9 -13
5 -14 9 -5 9 8 0 24 -4 35 -9z m-2378 -6 c-3 -3 -12 -4 -19 -1 -8 3 -5 6 6 6
11 1 17 -2 13 -5z m50 -10 c-3 -3 -12 -4 -19 -1 -8 3 -5 6 6 6 11 1 17 -2 13
-5z m2380 0 c-3 -3 -12 -4 -19 -1 -8 3 -5 6 6 6 11 1 17 -2 13 -5z m-2324 -11
c-7 -2 -19 -2 -25 0 -7 3 -2 5 12 5 14 0 19 -2 13 -5z m2364 1 c-3 -3 -12 -4
-19 -1 -8 3 -5 6 6 6 11 1 17 -2 13 -5z m-2294 -11 c-7 -2 -19 -2 -25 0 -7 3
-2 5 12 5 14 0 19 -2 13 -5z m95 -10 c-10 -2 -26 -2 -35 0 -10 3 -2 5 17 5 19
0 27 -2 18 -5z m2679 -9 c-3 -3 -12 -4 -19 -1 -8 3 -5 6 6 6 11 1 17 -2 13 -5z
m-2144 -11 c-7 -2 -19 -2 -25 0 -7 3 -2 5 12 5 14 0 19 -2 13 -5z m2090 0 c-7
-2 -21 -2 -30 0 -10 3 -4 5 12 5 17 0 24 -2 18 -5z m-1628 -151 c-66 -64 -140
-132 -165 -151 -32 -24 -28 -18 15 20 33 29 105 97 160 151 55 54 102 98 105
98 3 -1 -49 -53 -115 -118z m-1789 17 c3 -6 -10 0 -30 13 -20 13 -36 27 -36
31 0 9 56 -28 66 -44z m1449 15 c-24 -19 -111 -64 -122 -64 -8 0 127 78 137
79 3 0 -4 -7 -15 -15z m-1420 -34 c3 -5 1 -10 -4 -10 -6 0 -11 5 -11 10 0 6 2
10 4 10 3 0 8 -4 11 -10z m1385 -15 c0 -2 -13 -11 -30 -20 -38 -19 -40 -11 -2
9 31 17 32 18 32 11z m-1350 -15 c0 -5 -2 -10 -4 -10 -3 0 -8 5 -11 10 -3 6
-1 10 4 10 6 0 11 -4 11 -10z m30 -20 c0 -5 -2 -10 -4 -10 -3 0 -8 5 -11 10
-3 6 -1 10 4 10 6 0 11 -4 11 -10z m30 -20 c0 -5 -2 -10 -4 -10 -3 0 -8 5 -11
10 -3 6 -1 10 4 10 6 0 11 -4 11 -10z m30 -20 c0 -5 -2 -10 -4 -10 -3 0 -8 5
-11 10 -3 6 -1 10 4 10 6 0 11 -4 11 -10z m30 -20 c0 -5 -4 -10 -10 -10 -5 0
-10 5 -10 10 0 6 5 10 10 10 6 0 10 -4 10 -10z m30 -20 c0 -5 -2 -10 -4 -10
-3 0 -8 5 -11 10 -3 6 -1 10 4 10 6 0 11 -4 11 -10z m1360 -54 c0 -2 -8 -10
-17 -17 -16 -13 -17 -12 -4 4 13 16 21 21 21 13z m-355 -196 c-11 -5 -27 -9
-35 -9 -9 0 -8 4 5 9 11 5 27 9 35 9 9 0 8 -4 -5 -9z"/>
<path d="M3418 5533 c7 -3 16 -2 19 1 4 3 -2 6 -13 5 -11 0 -14 -3 -6 -6z"/>
<path d="M3555 5509 c-5 -20 -11 -29 -21 -25 -9 3 -14 -2 -14 -14 0 -12 -7
-21 -17 -21 -10 -1 -25 -2 -33 -3 -8 -1 -20 -4 -27 -9 -7 -4 -16 0 -23 10 -10
16 -10 15 -5 -4 7 -26 -8 -30 -27 -8 -7 9 -18 21 -24 28 -13 15 1 61 16 52 5
-3 10 -2 10 4 0 23 -204 -24 -307 -71 -23 -11 -46 -20 -50 -21 -9 -1 -18 -9
-63 -49 -16 -16 -35 -28 -40 -28 -6 0 -38 -17 -70 -39 -60 -38 -60 -39 -38
-54 l23 -15 -30 -7 c-16 -4 -35 -12 -42 -17 -7 -5 -17 -7 -22 -4 -5 4 -16 -2
-23 -11 -14 -19 -36 -34 -109 -70 -36 -18 -46 -28 -42 -42 3 -13 -2 -20 -22
-25 -14 -4 -23 -11 -20 -16 4 -6 11 -8 16 -5 5 4 9 1 9 -4 0 -6 17 -11 38 -11
24 0 32 -3 23 -9 -7 -5 -22 -6 -34 -3 -14 3 -18 1 -13 -6 4 -7 2 -12 -5 -12
-6 0 -18 -8 -25 -17 -12 -16 -13 -14 -8 13 5 26 2 33 -15 39 -11 3 -29 1 -40
-4 -14 -8 -22 -8 -27 1 -4 6 -2 14 4 16 7 2 12 10 12 18 0 19 -66 -17 -99 -54
-13 -15 -37 -36 -52 -48 -26 -19 -27 -21 -11 -35 9 -8 23 -14 30 -15 6 -1 16
-2 22 -2 12 -2 -22 -62 -36 -62 -5 0 -23 14 -39 30 -40 41 -83 40 -76 -2 0 -5
-13 -8 -29 -8 -23 0 -30 -4 -30 -20 0 -11 -5 -20 -11 -20 -5 0 -7 -4 -4 -10 3
-5 1 -10 -4 -10 -6 0 -11 8 -11 17 0 13 -9 8 -35 -17 -19 -19 -35 -39 -35 -46
0 -17 -58 -74 -75 -74 -16 0 -24 60 -13 91 7 19 7 20 -8 8 -27 -22 -144 -188
-144 -203 0 -2 9 -2 20 1 24 6 28 -22 5 -31 -8 -3 -15 -12 -15 -21 0 -8 -7
-15 -15 -15 -18 0 -20 -20 -2 -20 6 -1 1 -7 -12 -14 -18 -10 -20 -15 -11 -21
10 -6 7 -11 -11 -17 -19 -7 -21 -11 -9 -19 12 -7 11 -10 -7 -15 -27 -7 -30
-24 -5 -25 9 -1 -1 -7 -23 -13 l-40 -13 30 -8 30 -7 -40 -13 c-27 -9 -33 -13
-18 -14 29 -1 41 -21 13 -21 -17 0 -20 -4 -15 -20 5 -16 2 -20 -19 -20 -32 0
-43 -17 -14 -23 22 -3 22 -4 3 -11 -11 -4 -27 -10 -35 -13 -12 -4 -11 -7 5
-13 19 -9 19 -9 -2 -16 -25 -7 -30 -20 -10 -27 9 -4 9 -8 -2 -15 -10 -8 -7
-21 20 -68 47 -85 117 -196 188 -297 34 -49 57 -86 51 -82 -5 3 -24 27 -41 52
-18 26 -34 41 -38 34 -4 -6 -12 -2 -20 12 -13 20 -13 21 2 8 10 -7 17 -10 17
-7 0 13 -62 97 -67 92 -3 -3 0 -12 7 -21 7 -8 10 -15 7 -15 -6 0 -73 98 -110
163 -18 30 -35 47 -47 47 -28 0 -34 -18 -8 -22 22 -4 21 -5 -7 -17 -27 -12
-28 -14 -11 -20 13 -5 16 -10 9 -14 -12 -8 -12 -45 0 -64 4 -6 3 -14 -3 -18
-20 -12 -11 -84 17 -128 46 -71 135 -169 149 -163 7 3 16 1 19 -4 4 -6 1 -10
-4 -10 -6 0 -11 -7 -11 -15 0 -8 -4 -15 -10 -15 -11 0 -50 40 -50 52 0 4 -7 8
-16 8 -8 0 -13 4 -9 10 10 16 -88 151 -100 138 -4 -4 3 -28 14 -53 24 -55 27
-77 8 -69 -23 8 -57 92 -57 138 0 47 -7 76 -19 76 -19 0 -36 -206 -35 -410 1
-210 7 -274 41 -430 l17 -75 13 33 c14 35 20 37 58 20 25 -11 36 -48 14 -48
-7 0 -9 -9 -6 -22 4 -15 -1 -30 -15 -45 -22 -23 -12 -33 10 -11 19 19 27 0 9
-20 -23 -25 -21 -35 3 -22 23 12 27 -2 5 -20 -22 -18 -18 -32 6 -25 20 7 20 6
3 -20 -18 -27 -18 -28 4 -21 22 7 31 -7 12 -19 -16 -10 -11 -28 6 -21 13 5 15
1 10 -19 -5 -19 -3 -23 9 -19 18 7 19 0 5 -27 -12 -21 -1 -25 19 -6 14 12 14
10 -6 -40 -6 -16 -5 -16 10 -4 22 18 32 8 18 -17 -18 -33 -13 -37 15 -11 l26
24 -15 -37 -16 -38 27 18 c21 14 25 14 20 2 -23 -56 -23 -56 -5 -41 25 20 31
7 12 -23 -10 -14 -13 -26 -7 -26 6 0 14 5 17 10 12 19 26 11 15 -9 -15 -29
-13 -33 10 -21 19 10 20 9 14 -17 -7 -25 -6 -27 9 -14 17 14 21 10 17 -23 -1
-11 3 -15 9 -12 6 4 11 0 11 -9 0 -8 7 -18 15 -21 10 -4 13 -13 10 -25 -5 -13
-2 -17 7 -14 8 3 27 -6 42 -20 15 -14 31 -25 37 -25 5 0 10 -4 10 -10 1 -5 2
-13 3 -17 2 -13 49 -88 59 -94 6 -4 7 -14 4 -23 -4 -9 -1 -15 6 -13 7 1 11 -7
10 -20 -3 -26 7 -29 26 -10 10 10 12 7 9 -13 -2 -14 0 -25 4 -25 4 0 14 -9 22
-20 9 -11 16 -14 16 -7 0 6 5 12 11 12 16 0 48 -39 45 -53 -1 -7 -1 -9 1 -4
15 25 64 -19 57 -50 -4 -14 -2 -23 5 -23 6 0 11 9 11 20 0 12 5 17 13 14 7 -2
13 -17 12 -32 -2 -15 0 -19 2 -9 7 29 28 13 25 -19 -3 -23 -1 -27 9 -16 14 13
33 17 25 4 -2 -4 -1 -14 5 -22 6 -10 9 -11 9 -2 0 25 20 11 21 -15 0 -27 0
-28 10 -5 10 27 33 19 24 -8 -3 -10 -2 -21 3 -24 6 -3 12 3 15 14 3 11 10 20
15 20 19 0 43 -32 38 -49 -6 -19 10 -49 20 -38 4 4 13 -1 20 -11 12 -16 13
-15 14 6 0 12 5 22 11 22 6 0 9 -7 5 -15 -7 -18 29 -43 64 -44 14 0 50 -5 80
-10 l55 -9 -45 -2 c-25 -1 -37 -4 -27 -7 9 -2 17 -9 17 -14 0 -6 -24 -8 -62
-4 l-63 6 42 -20 c40 -19 97 -44 138 -61 36 -15 199 -67 245 -78 151 -36 211
-44 229 -29 12 10 14 9 9 -4 -5 -14 5 -17 70 -18 43 -2 94 -4 114 -6 21 -2 41
1 44 7 4 6 9 5 15 -3 6 -11 26 -11 106 -1 54 6 112 9 128 7 19 -4 24 -2 13 2
-14 7 -11 10 17 19 36 11 44 7 24 -13 -9 -9 -1 -9 27 -3 22 4 71 14 109 20 79
13 87 16 237 62 98 30 133 48 93 48 -8 0 -15 5 -15 10 0 13 3 13 34 -1 14 -7
33 -8 43 -4 17 7 17 8 -2 16 -14 6 -9 7 16 3 23 -4 39 -1 44 6 5 9 1 10 -16 6
-25 -6 4 7 109 51 61 26 74 37 50 46 -7 2 -1 2 14 0 28 -4 74 16 147 66 35 24
40 30 25 34 -13 3 -11 5 8 6 15 0 36 7 45 15 192 154 300 261 402 396 87 115
112 159 74 129 -16 -13 -17 -12 -4 4 8 10 21 15 30 12 8 -3 12 -3 9 1 -4 3 5
22 19 40 17 23 20 32 10 28 -9 -3 -2 10 16 28 18 19 42 54 53 79 59 122 72
154 68 161 -7 10 -46 0 -55 -15 -4 -5 -14 -7 -23 -4 -13 5 -15 11 -7 26 6 10
7 21 4 25 -3 3 -1 6 5 6 6 0 14 9 17 21 4 11 13 18 20 15 8 -3 11 2 8 13 -2
10 2 35 11 55 10 24 13 44 7 54 -5 10 -5 26 -1 37 4 12 2 25 -7 33 -14 14 -8
36 8 27 5 -4 10 4 10 17 1 13 2 34 3 48 1 14 -7 33 -17 43 -9 10 -15 22 -12
28 4 5 2 9 -2 9 -5 0 -10 12 -11 28 -1 15 -7 29 -12 30 -16 6 -12 22 5 22 8 0
15 -4 15 -8 0 -14 62 -13 79 1 9 8 23 17 31 20 8 3 1 6 -17 6 -17 1 -43 -3
-57 -9 -14 -5 -27 -6 -30 -2 -2 4 22 15 55 26 32 10 59 22 59 26 0 15 -136 -5
-146 -21 -3 -5 -10 -9 -17 -9 -23 0 19 27 61 39 64 18 43 34 -37 27 l-66 -5
55 14 c130 32 150 39 150 47 0 4 10 8 22 8 16 0 19 3 11 11 -8 8 -17 8 -31 0
-11 -6 -31 -11 -45 -11 -13 0 -27 -3 -31 -7 -7 -7 -106 -15 -106 -9 0 2 35 11
78 21 152 36 192 71 46 41 -85 -18 -142 -20 -84 -4 114 32 170 52 170 59 0 12
1 12 -97 -7 -46 -8 -91 -14 -101 -11 -19 4 -9 7 88 25 132 25 139 53 7 32
-108 -18 -120 -19 -111 -11 5 4 38 13 74 20 78 15 130 32 130 43 0 11 -21 10
-117 -6 -46 -7 -83 -10 -83 -6 0 4 24 10 53 14 47 6 97 18 137 33 35 13 -39
18 -117 7 -46 -6 -83 -7 -83 -2 0 4 14 8 31 8 51 0 170 31 163 42 -6 10 -146
4 -186 -8 -10 -3 -18 -1 -18 5 0 6 17 11 38 11 55 1 153 24 150 35 -4 12 -49
12 -136 2 -44 -6 -62 -5 -57 2 3 6 21 11 39 11 46 0 146 21 146 31 0 4 10 10
23 12 24 4 -77 -1 -163 -9 -74 -6 -44 11 33 20 68 7 137 27 137 39 0 5 -17 6
-37 3 -21 -3 -72 -8 -113 -11 -61 -5 -71 -4 -56 6 11 7 34 12 51 11 18 -1 61
7 96 18 l64 18 -62 1 c-34 1 -72 -3 -85 -7 -13 -4 -41 -5 -63 -2 -34 4 -22 8
78 24 67 11 112 23 105 27 -7 5 -64 5 -128 2 -63 -3 -113 -3 -110 0 3 3 56 11
118 18 62 7 112 16 112 21 0 11 -107 10 -115 -2 -4 -6 -16 -5 -33 1 -15 6 -28
10 -29 10 -2 -1 -9 -1 -15 -1 -9 0 -9 3 1 9 23 15 6 39 -23 34 -15 -3 -26 -1
-26 6 0 6 11 11 24 11 13 0 29 7 36 15 11 13 4 15 -56 16 -67 1 -68 2 -24 10
25 4 75 8 112 8 72 1 101 8 92 22 -8 14 -98 11 -113 -3 -11 -10 -14 -10 -18 0
-3 6 -21 13 -41 13 -20 1 7 7 60 13 147 17 150 36 7 37 l-114 2 90 8 c122 11
165 27 73 28 -37 1 -70 6 -73 11 -4 6 6 10 23 10 16 0 44 3 62 6 62 13 6 24
-130 25 -144 2 -139 4 33 15 60 3 105 10 100 15 -4 4 -59 9 -120 10 -62 1
-113 5 -113 10 0 5 53 9 117 9 157 0 137 17 -31 26 -97 6 -130 4 -136 -5 -5
-10 -9 -9 -13 3 -4 9 -2 16 4 16 7 0 9 10 5 25 -4 14 -2 25 4 25 18 0 11 30
-7 31 -14 0 -13 2 5 9 32 13 27 30 -10 31 l-33 1 29 7 c36 8 47 31 14 31 -12
0 -30 5 -38 10 -11 7 -3 10 30 10 56 0 43 15 -25 28 l-50 10 43 1 c23 0 42 5
42 10 0 11 -102 25 -130 18 -10 -3 -21 0 -24 7 -3 7 -5 6 -5 -3 -1 -8 7 -20
17 -27 16 -12 15 -13 -5 -14 -14 0 -23 -6 -23 -16 0 -8 4 -13 9 -10 5 3 11 -8
13 -24 3 -17 1 -30 -4 -30 -4 0 -9 -15 -9 -32 l-1 -33 -8 30 c-6 23 -8 25 -9
8 0 -12 -4 -29 -7 -38 -4 -9 -3 -15 2 -13 11 4 14 -5 14 -35 0 -16 -6 -23 -20
-24 -18 -2 -20 3 -16 30 15 88 16 147 4 147 -8 1 -6 6 6 15 10 7 15 18 12 24
-4 5 -2 12 4 16 14 9 12 62 -2 68 -10 4 -9 8 2 16 20 14 11 20 -38 22 -24 2
-42 8 -42 15 0 7 10 9 25 6 18 -3 25 0 25 11 0 8 3 22 6 31 4 11 1 16 -10 16
-9 0 -16 5 -16 10 0 6 7 10 16 10 8 0 12 5 9 10 -3 6 -15 10 -26 10 -10 0 -19
5 -19 10 0 6 16 10 37 10 20 0 34 2 32 4 -4 4 -72 15 -96 16 -7 0 -13 4 -13 9
0 5 28 7 63 5 44 -3 56 -2 42 5 -11 5 -34 10 -51 10 -44 1 -94 12 -94 21 0 3
12 5 28 4 94 -10 123 -11 111 -4 -7 5 -47 12 -89 16 -41 4 -82 8 -90 10 -8 1
-25 3 -37 3 -13 1 -23 5 -23 10 0 8 76 6 123 -4 9 -2 17 0 17 5 0 8 -49 20
-86 20 -13 0 -24 4 -24 10 0 5 6 8 13 5 6 -2 48 -6 92 -9 96 -7 82 8 -17 19
-85 8 -89 22 -5 19 l62 -2 -67 10 c-77 13 -93 30 -20 23 37 -4 41 -3 20 4 -15
5 -53 12 -85 16 -75 9 -80 15 -13 15 71 0 59 9 -21 16 -35 3 -73 7 -84 9 -11
2 -30 4 -42 4 -13 1 -23 6 -23 12 0 5 5 7 11 3 7 -4 9 2 7 16 -2 15 -11 24
-27 27 -13 2 -29 10 -35 17 -6 8 -30 17 -53 20 -34 4 -41 3 -36 -9 3 -8 1 -15
-4 -15 -5 0 -9 9 -10 20 -1 11 3 20 8 20 6 0 8 4 5 8 -3 5 -15 8 -28 7 -13 -1
-26 2 -29 8 -4 5 -9 5 -13 -2 -4 -6 -2 -11 3 -11 6 0 11 -4 11 -10 0 -11 -33
-14 -43 -4 -3 4 -2 15 4 25 8 15 6 19 -6 19 -9 0 -14 -4 -11 -9 9 -14 -4 -41
-19 -41 -7 0 -16 -6 -19 -12 -3 -9 -8 -8 -16 5 -14 22 -32 22 -53 -3 -18 -21
-37 -27 -37 -11 0 5 -7 11 -17 13 -10 2 -17 13 -17 31 -1 15 3 26 9 24 5 -2 9
-12 9 -21 -2 -13 1 -14 12 -5 8 6 14 7 14 2 0 -5 7 -10 15 -10 8 0 15 6 15 12
0 8 12 12 30 10 23 -2 30 1 29 14 -3 37 0 40 33 30 42 -12 48 -11 48 2 0 5 -4
7 -10 4 -8 -5 -98 68 -120 97 -3 3 -22 7 -42 9 -42 4 -79 -19 -77 -48 1 -16 2
-16 6 -1 4 14 8 15 29 6 17 -8 23 -17 19 -29 -3 -9 -1 -20 5 -24 6 -3 10 3 10
15 0 20 1 20 22 6 12 -9 33 -16 46 -16 18 0 23 -4 18 -16 -3 -9 -6 -17 -6 -18
0 -6 -105 7 -110 14 -5 7 -37 21 -58 26 -25 5 -43 28 -38 46 4 16 0 19 -26 16
-23 -2 -34 2 -42 17 -6 11 -14 22 -17 25 -3 3 -6 27 -5 54 1 43 -2 49 -24 58
-13 5 -28 14 -31 20 -4 6 -46 10 -105 10 -66 0 -109 4 -128 14 -46 22 -64 18
-71 -17z m-90 -139 c3 -6 -1 -13 -10 -16 -19 -8 -30 0 -20 15 8 14 22 14 30 1z
m-285 -50 c0 -5 -4 -10 -10 -10 -5 0 -10 5 -10 10 0 6 5 10 10 10 6 0 10 -4
10 -10z m383 -90 c-19 -18 -37 -20 -50 -5 -4 4 -2 5 5 1 6 -4 12 -2 12 4 0 6
4 9 9 6 5 -3 12 1 15 10 3 8 11 12 17 9 7 -5 4 -13 -8 -25z m64 15 c5 -4 2 -5
-6 0 -11 6 -13 4 -8 -8 9 -23 0 -21 -13 2 -7 15 -7 19 5 17 8 -1 18 -6 22 -11z
m28 5 c3 -5 1 -10 -4 -10 -6 0 -11 5 -11 10 0 6 2 10 4 10 3 0 8 -4 11 -10z
m96 -45 c5 4 9 0 9 -7 0 -8 -9 -14 -20 -14 -11 0 -20 6 -20 13 0 6 -4 15 -10
18 -6 4 -7 -1 -4 -12 5 -15 4 -15 -4 -3 -8 10 -8 18 0 27 9 11 14 9 25 -7 8
-11 19 -18 24 -15z m-288 -5 c-3 -12 -8 -19 -11 -16 -5 6 5 36 12 36 2 0 2 -9
-1 -20z m610 -5 c-3 -9 -8 -14 -10 -11 -3 3 -2 9 2 15 9 16 15 13 8 -4z m-583
-9 c0 -23 -16 -27 -17 -5 -1 10 2 19 8 19 5 0 9 -6 9 -14z m-56 -4 c3 -5 -1
-9 -9 -9 -8 0 -12 4 -9 9 3 4 7 8 9 8 2 0 6 -4 9 -8z m431 -1 c3 -5 2 -12 -3
-15 -5 -3 -9 1 -9 9 0 17 3 19 12 6z m-467 -26 c-3 -3 -9 2 -12 12 -6 14 -5
15 5 6 7 -7 10 -15 7 -18z m638 3 c3 -4 -1 -5 -10 -4 -8 1 -18 5 -22 8 -3 4 1
5 10 4 8 -1 18 -5 22 -8z m-676 -18 c0 -5 -5 -10 -11 -10 -5 0 -7 5 -4 10 3 6
8 10 11 10 2 0 4 -4 4 -10z m750 -16 c6 19 7 19 12 -2 4 -14 2 -20 -5 -15 -7
4 -8 0 -4 -13 7 -18 7 -18 -8 0 -8 11 -14 27 -14 35 1 10 3 9 7 -4 5 -20 5
-20 12 -1z m360 7 c0 -6 -9 -9 -20 -8 -11 1 -20 5 -20 9 0 4 9 8 20 8 11 0 20
-4 20 -9z m-1102 -36 c-3 -3 -9 2 -12 12 -6 14 -5 15 5 6 7 -7 10 -15 7 -18z
m1112 11 c0 -3 -4 -8 -10 -11 -5 -3 -10 -1 -10 4 0 6 5 11 10 11 6 0 10 -2 10
-4z m-85 -26 c3 -5 1 -10 -4 -10 -6 0 -11 5 -11 10 0 6 2 10 4 10 3 0 8 -4 11
-10z m-372 -7 c-7 -2 -13 -12 -13 -20 0 -9 -3 -14 -6 -10 -10 10 4 37 18 36
10 0 10 -2 1 -6z m457 -3 c0 -5 -2 -10 -4 -10 -3 0 -8 5 -11 10 -3 6 -1 10 4
10 6 0 11 -4 11 -10z m30 0 c0 -5 -4 -10 -10 -10 -5 0 -10 5 -10 10 0 6 5 10
10 10 6 0 10 -4 10 -10z m-1177 -20 c3 -11 1 -18 -4 -14 -5 3 -9 12 -9 20 0
20 7 17 13 -6z m1067 0 c0 -5 -4 -10 -10 -10 -5 0 -10 5 -10 10 0 6 5 10 10
10 6 0 10 -4 10 -10z m25 0 c3 -5 1 -10 -4 -10 -6 0 -11 5 -11 10 0 6 2 10 4
10 3 0 8 -4 11 -10z m-1745 -15 c0 6 4 4 9 -4 10 -15 3 -51 -10 -51 -5 0 -6 6
-3 14 3 9 -3 17 -15 21 -17 5 -18 9 -8 20 9 9 14 10 19 1 4 -6 8 -6 8 -1z
m1830 5 c0 -6 -7 -10 -15 -10 -8 0 -14 -6 -12 -12 1 -7 -8 -14 -20 -16 -19 -3
-23 1 -23 21 0 20 5 24 35 25 19 1 35 -3 35 -8z m30 0 c0 -5 -4 -10 -10 -10
-5 0 -10 5 -10 10 0 6 5 10 10 10 6 0 10 -4 10 -10z m-2020 -16 c0 -12 -28
-33 -35 -26 -4 4 -4 -3 -1 -15 6 -18 3 -23 -9 -23 -11 0 -15 -5 -11 -15 3 -8
1 -15 -4 -15 -6 0 -10 -4 -10 -10 0 -5 7 -10 15 -10 8 0 15 -4 15 -10 0 -5 8
-10 17 -10 9 0 14 -3 10 -6 -12 -13 -77 7 -77 23 0 26 42 103 57 103 7 0 13 5
13 10 0 6 5 10 10 10 6 0 10 -3 10 -6z m1910 -4 c0 -5 -5 -10 -11 -10 -5 0 -7
5 -4 10 3 6 8 10 11 10 2 0 4 -4 4 -10z m-513 -22 c-3 -8 -6 -5 -6 6 -1 11 2
17 5 13 3 -3 4 -12 1 -19z m30 0 c-3 -8 -6 -5 -6 6 -1 11 2 17 5 13 3 -3 4
-12 1 -19z m70 0 c-3 -8 -6 -5 -6 6 -1 11 2 17 5 13 3 -3 4 -12 1 -19z m523
12 c0 -5 -5 -10 -11 -10 -5 0 -7 5 -4 10 3 6 8 10 11 10 2 0 4 -4 4 -10z m80
-10 c0 -5 -4 -10 -10 -10 -5 0 -10 5 -10 10 0 6 5 10 10 10 6 0 10 -4 10 -10z
m70 -6 c0 -2 -9 -4 -20 -4 -11 0 -20 4 -20 9 0 5 9 7 20 4 11 -3 20 -7 20 -9z
m-1386 -2 c-5 -4 -12 -11 -15 -15 -3 -5 -9 -2 -12 5 -3 9 3 14 15 15 11 1 16
-1 12 -5z m-47 -24 c-3 -8 -6 -5 -6 6 -1 11 2 17 5 13 3 -3 4 -12 1 -19z
m1173 12 c0 -5 -2 -10 -4 -10 -3 0 -8 5 -11 10 -3 6 -1 10 4 10 6 0 11 -4 11
-10z m30 0 c0 -5 -4 -10 -10 -10 -5 0 -10 5 -10 10 0 6 5 10 10 10 6 0 10 -4
10 -10z m25 0 c3 -5 1 -10 -4 -10 -6 0 -11 5 -11 10 0 6 2 10 4 10 3 0 8 -4
11 -10z m115 -4 c0 -3 -4 -8 -10 -11 -5 -3 -10 -1 -10 4 0 6 5 11 10 11 6 0
10 -2 10 -4z m120 -16 c0 -13 -11 -13 -30 0 -12 8 -11 10 8 10 12 0 22 -4 22
-10z m-290 -10 c0 -5 -4 -10 -10 -10 -5 0 -10 5 -10 10 0 6 5 10 10 10 6 0 10
-4 10 -10z m264 -13 c3 4 6 1 6 -6 0 -6 -8 -11 -17 -9 -12 2 -17 -3 -15 -14 4
-28 -31 -22 -44 7 -10 20 -9 25 5 28 9 2 26 0 37 -4 12 -4 25 -5 28 -2z
m-1497 -29 c-3 -8 -6 -5 -6 6 -1 11 2 17 5 13 3 -3 4 -12 1 -19z m-630 -4 c-3
-3 -12 -4 -19 -1 -8 3 -5 6 6 6 11 1 17 -2 13 -5z m553 -35 c0 -11 -4 -18 -10
-14 -5 3 -7 12 -3 20 7 21 13 19 13 -6z m330 -59 c0 -5 -5 -10 -11 -10 -5 0
-7 5 -4 10 3 6 8 10 11 10 2 0 4 -4 4 -10z m-393 -7 c-4 -3 -2 -12 4 -19 7 -9
7 -18 0 -31 -8 -14 -10 -15 -11 -3 0 8 -3 25 -6 38 -4 14 -2 22 7 22 7 0 9 -3
6 -7z m837 -29 c3 -8 2 -12 -4 -9 -6 3 -10 10 -10 16 0 14 7 11 14 -7z m-779
-4 c3 -5 1 -10 -4 -10 -6 0 -11 5 -11 10 0 6 2 10 4 10 3 0 8 -4 11 -10z m585
6 c0 -3 -4 -8 -10 -11 -5 -3 -10 -1 -10 4 0 6 5 11 10 11 6 0 10 -2 10 -4z
m-610 -30 c0 -3 -4 -8 -10 -11 -5 -3 -10 -1 -10 4 0 6 5 11 10 11 6 0 10 -2
10 -4z m630 0 c0 -3 -4 -8 -10 -11 -5 -3 -10 -1 -10 4 0 6 5 11 10 11 6 0 10
-2 10 -4z m-480 -16 c0 -5 -5 -10 -11 -10 -5 0 -7 5 -4 10 3 6 8 10 11 10 2 0
4 -4 4 -10z m205 1 c3 -6 -3 -9 -14 -8 -11 0 -17 5 -15 9 7 11 22 10 29 -1z
m205 -36 c0 -8 -2 -15 -4 -15 -2 0 -6 7 -10 15 -3 8 -1 15 4 15 6 0 10 -7 10
-15z m457 -7 c-3 -8 -6 -5 -6 6 -1 11 2 17 5 13 3 -3 4 -12 1 -19z m-732 2 c3
-5 1 -10 -4 -10 -6 0 -11 5 -11 10 0 6 2 10 4 10 3 0 8 -4 11 -10z m85 -10 c8
-16 8 -20 -2 -18 -9 2 -12 -7 -11 -27 l1 -30 -13 30 c-10 22 -10 32 -2 37 7 4
8 8 4 8 -8 0 0 20 8 20 2 0 9 -9 15 -20z m-1380 3 c0 -14 -19 -38 -25 -32 -8
8 5 39 16 39 5 0 9 -3 9 -7z m2080 -3 c0 -5 -4 -10 -10 -10 -5 0 -10 5 -10 10
0 6 5 10 10 10 6 0 10 -4 10 -10z m-2200 -12 c0 -25 -17 -39 -47 -41 -18 -1
-29 -7 -26 -13 6 -15 -13 -27 -28 -18 -6 4 6 22 32 45 44 40 69 49 69 27z
m1670 -18 c0 -11 -4 -20 -9 -20 -6 0 -9 9 -8 20 1 11 5 20 9 20 4 0 8 -9 8
-20z m54 6 c-3 -8 0 -25 6 -38 l11 -23 -19 24 c-11 13 -24 21 -31 17 -7 -5
-11 1 -11 13 0 16 6 21 25 21 17 0 23 -4 19 -14z m1226 -35 c0 -5 -12 -7 -27
-5 -39 7 -42 14 -5 14 18 0 32 -4 32 -9z m-1475 -21 c3 -5 2 -10 -4 -10 -5 0
-13 5 -16 10 -3 6 -2 10 4 10 5 0 13 -4 16 -10z m1495 -19 c0 -6 -9 -9 -20 -8
-11 1 -20 5 -20 9 0 4 9 8 20 8 11 0 20 -4 20 -9z m-1700 -31 c0 -5 -2 -10 -4
-10 -3 0 -8 5 -11 10 -3 6 -1 10 4 10 6 0 11 -4 11 -10z m90 -25 c0 -5 -5 -3
-10 5 -5 8 -10 20 -10 25 0 6 5 3 10 -5 5 -8 10 -19 10 -25z m34 11 c-3 -9
-10 -16 -15 -16 -5 0 -4 9 3 20 14 22 21 20 12 -4z m216 -21 c7 -9 8 -15 2
-15 -5 0 -12 7 -16 15 -3 8 -4 15 -2 15 2 0 9 -7 16 -15z m-363 -47 c-3 -8 -6
-5 -6 6 -1 11 2 17 5 13 3 -3 4 -12 1 -19z m33 12 c0 -5 -4 -10 -10 -10 -5 0
-10 5 -10 10 0 6 5 10 10 10 6 0 10 -4 10 -10z m30 6 c0 -3 -4 -8 -10 -11 -5
-3 -10 -1 -10 4 0 6 5 11 10 11 6 0 10 -2 10 -4z m20 -11 c0 -8 -4 -15 -10
-15 -5 0 -7 7 -4 15 4 8 8 15 10 15 2 0 4 -7 4 -15z m30 3 c0 -10 2 -10 8 -1
6 9 11 7 20 -7 7 -12 8 -20 2 -20 -5 0 -10 5 -10 11 0 5 -4 8 -9 5 -5 -3 -14
1 -21 9 -9 10 -9 15 -1 15 6 0 11 -6 11 -12z m84 -4 c5 -14 4 -15 -9 -4 -17
14 -19 20 -6 20 5 0 12 -7 15 -16z m-236 -19 c-3 -3 -9 2 -12 12 -6 14 -5 15
5 6 7 -7 10 -15 7 -18z m-121 -37 c-3 -8 -6 -5 -6 6 -1 11 2 17 5 13 3 -3 4
-12 1 -19z m-104 -93 c-3 -9 -8 -14 -10 -11 -3 3 -2 9 2 15 9 16 15 13 8 -4z
m2153 -125 c-1 -39 -21 -39 -21 0 0 17 5 30 11 30 6 0 11 -13 10 -30z m194
-20 c0 -5 -13 -10 -30 -10 -16 0 -30 5 -30 10 0 6 14 10 30 10 17 0 30 -4 30
-10z m-2570 -20 c0 -5 -9 -6 -20 -3 -11 3 -17 9 -15 14 7 10 35 1 35 -11z
m1627 -2 c-3 -8 -6 -5 -6 6 -1 11 2 17 5 13 3 -3 4 -12 1 -19z m-1604 -49 c-9
-9 -12 -7 -10 9 1 14 5 18 11 12 7 -7 6 -14 -1 -21z m682 11 c3 -5 1 -10 -4
-10 -6 0 -11 5 -11 10 0 6 2 10 4 10 3 0 8 -4 11 -10z m677 -12 c-7 -7 -12 -8
-12 -2 0 6 3 14 7 17 3 4 9 5 12 2 2 -3 -1 -11 -7 -17z m220 0 c-7 -7 -12 -8
-12 -2 0 6 3 14 7 17 3 4 9 5 12 2 2 -3 -1 -11 -7 -17z m-122 2 c0 -5 -2 -10
-4 -10 -3 0 -8 5 -11 10 -3 6 -1 10 4 10 6 0 11 -4 11 -10z m30 6 c0 -3 -4 -8
-10 -11 -5 -3 -10 -1 -10 4 0 6 5 11 10 11 6 0 10 -2 10 -4z m0 -30 c0 -3 -4
-8 -10 -11 -5 -3 -10 -1 -10 4 0 6 5 11 10 11 6 0 10 -2 10 -4z m44 -11 c-9
-21 -33 -26 -31 -6 0 9 9 18 18 18 11 1 16 -3 13 -12z m23 -17 c-3 -7 -5 -2
-5 12 0 14 2 19 5 13 2 -7 2 -19 0 -25z m-1507 2 c0 -5 -4 -10 -10 -10 -5 0
-10 5 -10 10 0 6 5 10 10 10 6 0 10 -4 10 -10z m550 -2 c0 -5 -11 -8 -25 -8
-14 0 -25 4 -25 9 0 5 11 8 25 7 14 0 25 -4 25 -8z m680 2 c0 -5 -5 -10 -11
-10 -5 0 -7 5 -4 10 3 6 8 10 11 10 2 0 4 -4 4 -10z m130 0 c0 -5 -4 -10 -10
-10 -5 0 -10 5 -10 10 0 6 5 10 10 10 6 0 10 -4 10 -10z m-1390 -40 c0 -11 -4
-20 -9 -20 -5 0 -7 9 -4 20 3 11 7 20 9 20 2 0 4 -9 4 -20z m610 10 c0 -5 -4
-10 -10 -10 -5 0 -10 5 -10 10 0 6 5 10 10 10 6 0 10 -4 10 -10z m650 0 c0 -5
-2 -10 -4 -10 -3 0 -8 5 -11 10 -3 6 -1 10 4 10 6 0 11 -4 11 -10z m-825 -18
c-8 -8 -66 -12 -61 -4 3 5 19 9 36 9 16 0 28 -2 25 -5z m790 -10 c-3 -3 -11 0
-18 7 -9 10 -8 11 6 5 10 -3 15 -9 12 -12z m410 8 c3 -5 1 -10 -4 -10 -6 0
-11 5 -11 10 0 6 2 10 4 10 3 0 8 -4 11 -10z m-1085 -10 c0 -5 -2 -10 -4 -10
-3 0 -8 5 -11 10 -3 6 -1 10 4 10 6 0 11 -4 11 -10z m-699 -33 c-10 -9 -11 -8
-5 6 3 10 9 15 12 12 3 -3 0 -11 -7 -18z m39 7 c0 -8 -4 -12 -10 -9 -5 3 -10
10 -10 16 0 5 5 9 10 9 6 0 10 -7 10 -16z m460 6 c0 -5 -4 -10 -10 -10 -5 0
-10 5 -10 10 0 6 5 10 10 10 6 0 10 -4 10 -10z m240 0 c0 -5 -5 -10 -11 -10
-5 0 -7 5 -4 10 3 6 8 10 11 10 2 0 4 -4 4 -10z m-320 -20 c0 -5 -5 -10 -11
-10 -5 0 -7 5 -4 10 3 6 8 10 11 10 2 0 4 -4 4 -10z m190 -10 c-8 -5 -17 -7
-19 -4 -3 3 1 9 9 14 8 5 17 7 19 4 3 -3 -1 -9 -9 -14z m292 -2 c-7 -7 -12 -8
-12 -2 0 6 3 14 7 17 3 4 9 5 12 2 2 -3 -1 -11 -7 -17z m1758 15 c0 -17 -19
-37 -27 -29 -4 5 -2 11 5 13 6 3 10 9 6 14 -3 5 0 9 5 9 6 0 11 -3 11 -7z
m-2270 -13 c0 -5 -2 -10 -4 -10 -3 0 -8 5 -11 10 -3 6 -1 10 4 10 6 0 11 -4
11 -10z m380 0 c0 -5 -4 -10 -10 -10 -5 0 -10 5 -10 10 0 6 5 10 10 10 6 0 10
-4 10 -10z m600 6 c0 -3 -4 -8 -10 -11 -5 -3 -10 -1 -10 4 0 6 5 11 10 11 6 0
10 -2 10 -4z m289 -59 c1 -5 -3 -5 -9 -2 -5 3 -10 16 -9 28 0 21 1 21 9 2 5
-11 9 -24 9 -28z m-729 23 c0 -5 -2 -10 -4 -10 -3 0 -8 5 -11 10 -3 6 -1 10 4
10 6 0 11 -4 11 -10z m-255 -20 c-3 -5 -11 -10 -16 -10 -6 0 -7 5 -4 10 3 6
11 10 16 10 6 0 7 -4 4 -10z m185 -2 c0 -4 -9 -8 -20 -8 -11 0 -20 4 -20 8 0
4 9 8 20 8 11 0 20 -4 20 -8z m110 2 c0 -5 -5 -10 -11 -10 -5 0 -7 5 -4 10 3
6 8 10 11 10 2 0 4 -4 4 -10z m410 0 c0 -5 -4 -10 -10 -10 -5 0 -10 5 -10 10
0 6 5 10 10 10 6 0 10 -4 10 -10z m160 6 c0 -3 -4 -8 -10 -11 -5 -3 -10 -1
-10 4 0 6 5 11 10 11 6 0 10 -2 10 -4z m287 -38 c-3 -8 -6 -5 -6 6 -1 11 2 17
5 13 3 -3 4 -12 1 -19z m-1157 2 c0 -5 -4 -10 -10 -10 -5 0 -10 5 -10 10 0 6
5 10 10 10 6 0 10 -4 10 -10z m30 0 c0 -5 -4 -10 -10 -10 -5 0 -10 5 -10 10 0
6 5 10 10 10 6 0 10 -4 10 -10z m158 -2 c-2 -6 -10 -14 -16 -16 -7 -2 -10 2
-6 12 7 18 28 22 22 4z m32 -3 c0 -8 -4 -15 -10 -15 -5 0 -10 7 -10 15 0 8 5
15 10 15 6 0 10 -7 10 -15z m113 2 c2 -7 -3 -23 -13 -35 -23 -28 -36 -29 -16
-1 8 12 12 28 9 35 -3 8 -1 14 5 14 5 0 12 -6 15 -13z m427 3 c0 -5 -7 -7 -15
-4 -8 4 -15 1 -15 -5 0 -6 8 -11 18 -12 14 0 14 -2 -3 -8 -23 -9 -55 -3 -55
11 0 6 7 7 16 4 12 -4 15 -2 10 9 -4 11 1 15 19 15 14 0 25 -4 25 -10z m69 -7
c-8 -9 -15 -10 -24 -3 -8 6 -15 6 -23 -2 -9 -9 -12 -8 -12 5 0 12 8 16 35 15
28 -1 33 -4 24 -15z m291 7 c0 -5 -2 -10 -4 -10 -3 0 -8 5 -11 10 -3 6 -1 10
4 10 6 0 11 -4 11 -10z m70 0 c0 -5 -2 -10 -4 -10 -3 0 -8 5 -11 10 -3 6 -1
10 4 10 6 0 11 -4 11 -10z m-1105 -20 c-3 -5 -12 -10 -18 -10 -7 0 -6 4 3 10
19 12 23 12 15 0z m511 -2 c7 -8 -17 -12 -44 -9 -7 1 -15 -5 -18 -14 -3 -8
-10 -15 -14 -15 -5 0 -3 10 3 23 10 22 56 31 73 15z m79 2 c3 -5 2 -10 -4 -10
-5 0 -13 5 -16 10 -3 6 -2 10 4 10 5 0 13 -4 16 -10z m-405 -10 c0 -5 -2 -10
-4 -10 -3 0 -8 5 -11 10 -3 6 -1 10 4 10 6 0 11 -4 11 -10z m1718 5 c-10 -11
-48 -14 -48 -4 0 5 12 9 27 9 14 0 24 -2 21 -5z m-2428 -25 c0 -5 -2 -10 -4
-10 -3 0 -8 5 -11 10 -3 6 -1 10 4 10 6 0 11 -4 11 -10z m670 0 c0 -5 -5 -10
-11 -10 -5 0 -7 5 -4 10 3 6 8 10 11 10 2 0 4 -4 4 -10z m70 -34 c0 -2 -12 -3
-26 -3 -17 0 -24 4 -20 13 3 8 1 14 -4 14 -6 0 -10 5 -10 11 0 6 14 1 30 -11
17 -12 30 -23 30 -24z m340 25 c0 -5 -7 -14 -15 -21 -10 -9 -15 -9 -15 -1 0 6
5 11 11 11 5 0 7 5 4 10 -3 6 -1 10 4 10 6 0 11 -4 11 -9z m-1125 -11 c3 -5 1
-10 -4 -10 -6 0 -11 5 -11 10 0 6 2 10 4 10 3 0 8 -4 11 -10z m702 -16 c-7 -7
-37 7 -37 17 0 6 9 5 21 -1 11 -7 19 -14 16 -16z m-57 6 c0 -5 -5 -10 -11 -10
-5 0 -7 5 -4 10 3 6 8 10 11 10 2 0 4 -4 4 -10z m330 0 c0 -5 -4 -10 -10 -10
-5 0 -10 5 -10 10 0 6 5 10 10 10 6 0 10 -4 10 -10z m25 0 c3 -5 1 -10 -4 -10
-6 0 -11 5 -11 10 0 6 2 10 4 10 3 0 8 -4 11 -10z m-1373 -42 c-7 -7 -12 -8
-12 -2 0 14 12 26 19 19 2 -3 -1 -11 -7 -17z m374 13 c-4 -5 0 -11 6 -14 7 -2
9 -8 5 -13 -4 -5 -12 -2 -17 6 -13 20 -12 30 1 30 5 0 8 -4 5 -9z m674 -1 c0
-5 -4 -10 -10 -10 -5 0 -10 5 -10 10 0 6 5 10 10 10 6 0 10 -4 10 -10z m50 0
c0 -5 -2 -10 -4 -10 -3 0 -8 5 -11 10 -3 6 -1 10 4 10 6 0 11 -4 11 -10z m140
0 c0 -5 -4 -10 -10 -10 -5 0 -10 5 -10 10 0 6 5 10 10 10 6 0 10 -4 10 -10z
m270 0 c0 -5 -2 -10 -4 -10 -3 0 -8 5 -11 10 -3 6 -1 10 4 10 6 0 11 -4 11
-10z m-440 -50 c0 -5 -5 -10 -11 -10 -5 0 -7 5 -4 10 3 6 8 10 11 10 2 0 4 -4
4 -10z m275 -11 c-10 -15 -25 -10 -19 6 4 8 10 12 15 9 5 -3 7 -10 4 -15z
m165 11 c0 -5 -4 -10 -10 -10 -5 0 -10 5 -10 10 0 6 5 10 10 10 6 0 10 -4 10
-10z m-224 -13 c19 7 19 7 0 -12 -14 -14 -21 -16 -24 -7 -2 7 -8 10 -13 6 -10
-6 -12 9 -2 19 4 4 10 3 13 -3 4 -6 15 -7 26 -3z m-951 -7 c3 -5 1 -10 -4 -10
-6 0 -11 5 -11 10 0 6 2 10 4 10 3 0 8 -4 11 -10z m395 -10 c0 -5 -2 -10 -4
-10 -3 0 -8 5 -11 10 -3 6 -1 10 4 10 6 0 11 -4 11 -10z m30 6 c0 -3 -4 -8
-10 -11 -5 -3 -10 -1 -10 4 0 6 5 11 10 11 6 0 10 -2 10 -4z m270 -6 c0 -5 -5
-10 -11 -10 -5 0 -7 5 -4 10 3 6 8 10 11 10 2 0 4 -4 4 -10z m30 0 c0 -5 -4
-10 -10 -10 -5 0 -10 5 -10 10 0 6 5 10 10 10 6 0 10 -4 10 -10z m330 0 c0 -5
-4 -10 -10 -10 -5 0 -10 5 -10 10 0 6 5 10 10 10 6 0 10 -4 10 -10z m-1909
-17 c13 -16 12 -17 -3 -4 -17 13 -22 21 -14 21 2 0 10 -8 17 -17z m819 3 c0
-3 -4 -8 -10 -11 -5 -3 -10 -1 -10 4 0 6 5 11 10 11 6 0 10 -2 10 -4z m150 -8
c0 -4 -9 -8 -20 -8 -11 0 -20 4 -20 8 0 4 9 8 20 8 11 0 20 -4 20 -8z m50 -4
c0 -7 -8 -10 -20 -7 -11 3 -20 8 -20 12 0 4 9 7 20 7 11 0 20 -6 20 -12z m80
-13 c0 -13 -2 -13 -9 -2 -5 8 -16 11 -29 7 -12 -4 -23 -2 -28 5 -5 9 -2 10 9
6 10 -3 17 -2 17 2 0 5 9 7 20 4 11 -3 20 -13 20 -22z m1140 19 c0 -5 -5 -10
-11 -10 -5 0 -7 5 -4 10 3 6 8 10 11 10 2 0 4 -4 4 -10z m-1097 -17 c-4 -10
-9 -11 -19 -2 -19 15 -18 18 5 16 11 -1 17 -6 14 -14z m86 1 c-9 -11 -15 -11
-25 -3 -19 15 -18 17 11 17 21 0 23 -3 14 -14z m81 1 c-7 -9 -15 -13 -17 -11
-7 7 7 26 19 26 6 0 6 -6 -2 -15z m500 5 c0 -5 -2 -10 -4 -10 -3 0 -8 5 -11
10 -3 6 -1 10 4 10 6 0 11 -4 11 -10z m80 0 c0 -5 -2 -10 -4 -10 -3 0 -8 5
-11 10 -3 6 -1 10 4 10 6 0 11 -4 11 -10z m175 3 c-11 -3 -23 -10 -27 -17 -5
-7 -8 -7 -8 0 0 16 11 24 34 23 20 -1 20 -1 1 -6z m-1425 -7 c0 -3 -4 -8 -10
-11 -5 -3 -10 -1 -10 4 0 6 5 11 10 11 6 0 10 -2 10 -4z m1512 -18 c-6 -6 -15
-8 -19 -4 -4 4 -1 11 7 16 19 12 27 3 12 -12z m48 6 c0 -8 -5 -12 -10 -9 -6 4
-8 11 -5 16 9 14 15 11 15 -7z m180 -3 c0 -4 -9 -7 -20 -7 -11 0 -20 6 -20 12
0 7 8 10 20 7 11 -3 20 -8 20 -12z m-2640 -22 c0 -5 -11 -14 -24 -20 -14 -7
-22 -17 -19 -25 4 -10 -3 -14 -21 -14 -14 0 -26 6 -26 13 1 22 27 47 50 47 16
0 21 4 16 16 -5 14 -4 15 9 4 8 -7 15 -16 15 -21z m291 14 c13 -16 12 -17 -3
-4 -10 7 -18 15 -18 17 0 8 8 3 21 -13z m879 13 c0 -3 -4 -8 -10 -11 -5 -3
-10 -1 -10 4 0 6 5 11 10 11 6 0 10 -2 10 -4z m1320 -6 c0 -5 -4 -10 -10 -10
-5 0 -10 5 -10 10 0 6 5 10 10 10 6 0 10 -4 10 -10z m50 0 c0 -5 -2 -10 -4
-10 -3 0 -8 5 -11 10 -3 6 -1 10 4 10 6 0 11 -4 11 -10z m-1435 -30 c3 -5 1
-10 -4 -10 -6 0 -11 5 -11 10 0 6 2 10 4 10 3 0 8 -4 11 -10z m525 0 c0 -5 -5
-10 -11 -10 -5 0 -7 5 -4 10 3 6 8 10 11 10 2 0 4 -4 4 -10z m962 -12 c-7 -7
-12 -8 -12 -2 0 6 3 14 7 17 3 4 9 5 12 2 2 -3 -1 -11 -7 -17z m-972 -12 c0
-3 -4 -8 -10 -11 -5 -3 -10 -1 -10 4 0 6 5 11 10 11 6 0 10 -2 10 -4z m-20
-46 c0 -15 -7 -20 -25 -20 -17 0 -25 6 -25 17 0 13 3 14 12 5 17 -17 31 -15
24 3 -3 8 -1 15 4 15 6 0 10 -9 10 -20z m1100 0 c0 -5 -10 -10 -22 -9 -22 0
-22 1 -3 9 11 5 21 9 23 9 1 1 2 -3 2 -9z m-1895 -30 c3 -6 -1 -7 -9 -4 -18 7
-21 14 -7 14 6 0 13 -4 16 -10z m1900 -18 c-6 -7 -34 11 -29 19 3 5 11 3 19
-4 7 -6 12 -13 10 -15z m-1065 9 c0 -5 -7 -12 -16 -15 -14 -5 -15 -4 -4 9 14
17 20 19 20 6z m30 -1 c0 -5 -4 -10 -10 -10 -5 0 -10 5 -10 10 0 6 5 10 10 10
6 0 10 -4 10 -10z m25 0 c3 -5 1 -10 -4 -10 -6 0 -11 5 -11 10 0 6 2 10 4 10
3 0 8 -4 11 -10z m55 0 c0 -5 -5 -10 -11 -10 -5 0 -7 5 -4 10 3 6 8 10 11 10
2 0 4 -4 4 -10z m360 -6 c0 -8 -5 -12 -10 -9 -6 4 -8 11 -5 16 9 14 15 11 15
-7z m25 6 c3 -5 1 -10 -4 -10 -6 0 -11 5 -11 10 0 6 2 10 4 10 3 0 8 -4 11
-10z m-2184 -13 c-1 -4 -1 -16 -1 -27 0 -11 -4 -20 -10 -20 -5 0 -10 14 -10
31 0 17 5 29 11 27 6 -2 10 -7 10 -11z m1839 -17 c0 -5 -4 -10 -10 -10 -5 0
-10 5 -10 10 0 6 5 10 10 10 6 0 10 -4 10 -10z m30 0 c0 -5 -4 -10 -10 -10 -5
0 -10 5 -10 10 0 6 5 10 10 10 6 0 10 -4 10 -10z m220 0 c0 -5 -4 -10 -10 -10
-5 0 -10 5 -10 10 0 6 5 10 10 10 6 0 10 -4 10 -10z m140 6 c0 -3 -4 -8 -10
-11 -5 -3 -10 -1 -10 4 0 6 5 11 10 11 6 0 10 -2 10 -4z m50 -6 c0 -5 -2 -10
-4 -10 -3 0 -8 5 -11 10 -3 6 -1 10 4 10 6 0 11 -4 11 -10z m80 -21 c0 -4 -7
-12 -15 -19 -8 -7 -15 -10 -15 -7 0 3 -2 12 -5 19 -4 9 2 14 15 14 11 0 20 -3
20 -7z m185 1 c3 -5 1 -10 -4 -10 -6 0 -11 5 -11 10 0 6 2 10 4 10 3 0 8 -4
11 -10z m55 0 c0 -10 -26 -20 -34 -13 -11 12 -6 19 14 20 11 1 20 -2 20 -7z
m-730 -9 c0 -5 -7 -11 -15 -15 -15 -5 -20 5 -8 17 9 10 23 9 23 -2z m190 -1
c0 -5 -2 -10 -4 -10 -3 0 -8 5 -11 10 -3 6 -1 10 4 10 6 0 11 -4 11 -10z m250
1 c0 -6 -4 -13 -10 -16 -5 -3 -10 1 -10 9 0 9 5 16 10 16 6 0 10 -4 10 -9z
m-700 -11 c0 -5 -4 -10 -10 -10 -5 0 -10 5 -10 10 0 6 5 10 10 10 6 0 10 -4
10 -10z m-1330 -20 c6 -11 8 -20 6 -20 -3 0 -10 9 -16 20 -6 11 -8 20 -6 20 3
0 10 -9 16 -20z m2200 10 c0 -5 -2 -10 -4 -10 -3 0 -8 5 -11 10 -3 6 -1 10 4
10 6 0 11 -4 11 -10z m30 6 c0 -3 -4 -8 -10 -11 -5 -3 -10 -1 -10 4 0 6 5 11
10 11 6 0 10 -2 10 -4z m-1707 -37 c-9 -9 -12 -7 -10 9 1 14 5 18 11 12 7 -7
6 -14 -1 -21z m1273 11 c0 -11 -4 -20 -8 -20 -4 0 -8 9 -8 20 0 11 4 20 8 20
4 0 8 -9 8 -20z m-91 -19 c-3 -6 -11 -11 -17 -11 -6 0 -6 6 2 15 14 17 26 13
15 -4z m35 9 c0 -5 -5 -10 -11 -10 -5 0 -7 5 -4 10 3 6 8 10 11 10 2 0 4 -4 4
-10z m25 0 c3 -5 1 -10 -4 -10 -6 0 -11 5 -11 10 0 6 2 10 4 10 3 0 8 -4 11
-10z m599 -55 c-4 -8 -8 -15 -10 -15 -2 0 -4 7 -4 15 0 8 4 15 10 15 5 0 7 -7
4 -15z m28 -17 c-7 -7 -12 -8 -12 -2 0 6 3 14 7 17 3 4 9 5 12 2 2 -3 -1 -11
-7 -17z m74 -5 c-10 -10 -19 5 -10 18 6 11 8 11 12 0 2 -7 1 -15 -2 -18z
m-706 7 c0 -5 -5 -10 -11 -10 -5 0 -7 5 -4 10 3 6 8 10 11 10 2 0 4 -4 4 -10z
m40 0 c0 -5 -5 -10 -11 -10 -5 0 -7 5 -4 10 3 6 8 10 11 10 2 0 4 -4 4 -10z
m620 -30 c0 -5 -2 -10 -4 -10 -3 0 -8 5 -11 10 -3 6 -1 10 4 10 6 0 11 -4 11
-10z m1060 -10 c0 -5 -10 -10 -22 -10 -19 0 -20 2 -8 10 19 13 30 13 30 0z
m-137 -27 c-7 -2 -21 -2 -30 0 -10 3 -4 5 12 5 17 0 24 -2 18 -5z m-903 -18
c0 -8 -4 -15 -10 -15 -5 0 -7 7 -4 15 4 8 8 15 10 15 2 0 4 -7 4 -15z m955 5
c-3 -5 -14 -10 -23 -9 -14 0 -13 2 3 9 27 11 27 11 20 0z m-1715 -30 c0 -5 -4
-10 -10 -10 -5 0 -10 5 -10 10 0 6 5 10 10 10 6 0 10 -4 10 -10z m40 0 c0 -5
-4 -10 -10 -10 -5 0 -10 5 -10 10 0 6 5 10 10 10 6 0 10 -4 10 -10z m40 0 c0
-5 -4 -10 -10 -10 -5 0 -10 5 -10 10 0 6 5 10 10 10 6 0 10 -4 10 -10z m-2120
-10 c0 -5 -7 -10 -16 -10 -8 0 -12 5 -9 10 3 6 10 10 16 10 5 0 9 -4 9 -10z
m2930 -15 c11 -13 10 -14 -4 -9 -9 3 -16 10 -16 15 0 13 6 11 20 -6z m713 8
c-7 -2 -19 -2 -25 0 -7 3 -2 5 12 5 14 0 19 -2 13 -5z m54 -48 c0 -8 -4 -15
-8 -15 -4 0 -9 7 -13 15 -3 9 0 15 8 15 7 0 13 -7 13 -15z m-837 -15 c0 -5 -5
-10 -11 -10 -5 0 -7 5 -4 10 3 6 8 10 11 10 2 0 4 -4 4 -10z m-845 -80 c3 -5
1 -10 -4 -10 -6 0 -11 5 -11 10 0 6 2 10 4 10 3 0 8 -4 11 -10z m85 0 c0 -5
-5 -10 -11 -10 -5 0 -7 5 -4 10 3 6 8 10 11 10 2 0 4 -4 4 -10z m1557 4 c-3
-3 -12 -4 -19 -1 -8 3 -5 6 6 6 11 1 17 -2 13 -5z m-647 -38 c0 -3 -4 -8 -10
-11 -5 -3 -10 -1 -10 4 0 6 5 11 10 11 6 0 10 -2 10 -4z m-2846 -32 c12 -5 14
-10 6 -19 -9 -10 -6 -19 9 -34 16 -16 17 -20 5 -25 -18 -7 -54 10 -54 24 0 6
-10 10 -22 10 l-21 0 23 25 c25 27 30 28 54 19z m3419 -41 c-7 -2 -19 -2 -25
0 -7 3 -2 5 12 5 14 0 19 -2 13 -5z m-623 -12 c0 -5 -7 -11 -14 -14 -10 -4
-13 -1 -9 9 6 15 23 19 23 5z m547 -47 c-3 -3 -12 -4 -19 -1 -8 3 -5 6 6 6 11
1 17 -2 13 -5z m-3312 -94 c3 -5 2 -10 -4 -10 -5 0 -13 5 -16 10 -3 6 -2 10 4
10 5 0 13 -4 16 -10z m2855 -4 c0 -3 -4 -8 -10 -11 -5 -3 -10 -1 -10 4 0 6 5
11 10 11 6 0 10 -2 10 -4z m-1940 -356 c0 -5 -5 -10 -11 -10 -5 0 -7 5 -4 10
3 6 8 10 11 10 2 0 4 -4 4 -10z m2630 -24 c0 -2 -12 -11 -27 -20 l-28 -17 24
20 c23 21 31 25 31 17z m-60 -40 c0 -2 -8 -10 -17 -17 -16 -13 -17 -12 -4 4
13 16 21 21 21 13z m-320 -210 c0 -2 -7 -7 -16 -10 -8 -3 -12 -2 -9 4 6 10 25
14 25 6z m-40 -21 c0 -6 -237 -125 -247 -124 -6 0 234 126 245 128 1 1 2 -1 2
-4z m-290 -145 c-8 -5 -19 -10 -25 -10 -5 0 -3 5 5 10 8 5 20 10 25 10 6 0 3
-5 -5 -10z m50 -10 c0 -5 -5 -10 -11 -10 -5 0 -7 5 -4 10 3 6 8 10 11 10 2 0
4 -4 4 -10z m-243 -65 c-2 -37 -11 -45 -21 -20 -3 8 -1 15 4 15 6 0 10 9 10
20 0 11 2 20 5 20 3 0 4 -16 2 -35z m-37 -9 c0 -3 -4 -8 -10 -11 -5 -3 -10 -1
-10 4 0 6 5 11 10 11 6 0 10 -2 10 -4z m-203 -37 c6 -6 27 -11 47 -12 21 -1
31 -4 23 -9 -11 -7 -8 -9 9 -7 4 0 10 -3 13 -8 3 -5 25 -17 49 -27 50 -23 51
-33 0 -12 -20 9 -38 12 -42 9 -3 -4 -6 -1 -6 5 0 7 -9 12 -20 12 -11 0 -20 5
-20 10 0 6 -6 10 -12 10 -7 0 -26 9 -43 20 -16 11 -25 20 -19 20 5 0 15 -5 21
-11z m143 1 c0 -5 -2 -10 -4 -10 -3 0 -8 5 -11 10 -3 6 -1 10 4 10 6 0 11 -4
11 -10z m-880 -35 c0 -8 -2 -15 -4 -15 -2 0 -6 7 -10 15 -3 8 -1 15 4 15 6 0
10 -7 10 -15z m900 6 c0 -14 -29 -21 -36 -9 -4 6 -3 8 4 4 6 -3 13 -2 17 4 8
12 15 13 15 1z m-140 -8 c0 -5 -12 -9 -27 -10 -19 -1 -22 1 -12 8 17 11 39 12
39 2z m-777 -28 c4 -8 2 -17 -3 -20 -6 -4 -10 3 -10 14 0 25 6 27 13 6z m452
5 c3 -5 1 -10 -4 -10 -6 0 -11 5 -11 10 0 6 2 10 4 10 3 0 8 -4 11 -10z m385
-10 c0 -5 -2 -10 -4 -10 -3 0 -8 5 -11 10 -3 6 -1 10 4 10 6 0 11 -4 11 -10z
m-421 -26 c-10 -13 -10 -17 2 -25 10 -6 10 -9 2 -10 -7 -1 -17 -2 -22 -3 -6 0
-30 -25 -55 -53 -42 -50 -44 -55 -34 -89 7 -25 6 -40 -1 -47 -6 -6 -11 -20
-11 -32 0 -16 -2 -17 -10 -5 -6 10 -5 22 5 36 8 12 10 26 5 34 -5 8 -6 18 -4
22 3 4 1 8 -5 8 -22 0 -3 28 85 121 13 14 24 31 24 37 0 9 12 18 29 21 2 1 -2
-6 -10 -15z m106 -4 c3 -5 -1 -10 -10 -10 -9 0 -13 5 -10 10 3 6 8 10 10 10 2
0 7 -4 10 -10z m477 -4 c-3 -5 3 -7 14 -4 11 2 27 -4 38 -16 19 -19 19 -19 0
-12 -10 5 -32 12 -49 17 -29 8 -29 8 -10 -8 18 -14 18 -15 2 -9 -10 3 -21 6
-23 6 -2 0 -4 6 -4 14 0 8 -6 16 -12 19 -7 2 1 4 19 3 17 -1 29 -5 25 -10z
m-1822 -11 c0 -8 -2 -15 -4 -15 -2 0 -6 7 -10 15 -3 8 -1 15 4 15 6 0 10 -7
10 -15z m1780 1 c0 -3 -4 -8 -10 -11 -5 -3 -10 -1 -10 4 0 6 5 11 10 11 6 0
10 -2 10 -4z m-909 -40 c5 3 8 0 7 -7 -2 -7 10 -16 27 -20 17 -4 23 -7 15 -8
-13 -1 -13 -2 0 -11 10 -6 11 -10 3 -10 -7 0 -13 -5 -13 -11 0 -6 6 -9 13 -6
9 3 13 -2 12 -16 -2 -21 22 -57 38 -57 5 0 7 7 3 15 -3 8 -1 15 4 15 6 0 10
-9 10 -20 0 -27 34 -44 50 -25 7 8 10 22 6 30 -9 24 10 18 21 -7 6 -15 12 -18
17 -10 4 7 3 12 -2 12 -5 0 -7 12 -4 26 l5 27 13 -24 c10 -20 10 -30 -2 -58
-8 -19 -12 -43 -8 -53 5 -17 1 -19 -50 -17 -50 2 -60 -1 -89 -27 l-32 -29 34
37 c40 44 37 75 -9 108 -17 12 -30 30 -30 40 0 10 -5 22 -10 25 -6 4 -8 15 -5
26 5 15 1 19 -15 19 -12 0 -18 5 -15 10 3 6 1 10 -4 10 -6 0 -10 10 -10 23 1
17 2 18 6 4 2 -9 9 -15 14 -11z m687 -1 c3 -10 0 -15 -7 -11 -6 4 -11 1 -11
-6 0 -8 -6 -23 -14 -34 -13 -18 -15 -18 -21 -2 -4 10 0 24 9 33 9 9 16 23 16
32 0 20 24 11 28 -12z m-528 -5 c0 -5 -5 -10 -11 -10 -5 0 -7 5 -4 10 3 6 8
10 11 10 2 0 4 -4 4 -10z m187 -5 c0 -8 -4 -12 -9 -9 -5 3 -6 10 -3 15 9 13
12 11 12 -6z m-247 -9 c0 -3 -4 -8 -10 -11 -5 -3 -10 -1 -10 4 0 6 5 11 10 11
6 0 10 -2 10 -4z m202 -42 c-12 -8 -19 -20 -16 -26 5 -7 2 -8 -5 -3 -9 5 -7
13 10 31 12 13 25 22 28 19 2 -3 -5 -12 -17 -21z m-464 9 c-10 -2 -26 -2 -35
0 -10 3 -2 5 17 5 19 0 27 -2 18 -5z m742 -15 c0 -7 -17 -27 -37 -46 -36 -31
-38 -32 -45 -12 -4 11 -4 28 -1 38 6 14 8 13 14 -8 l6 -25 11 25 c6 14 11 19
11 11 1 -11 4 -11 16 -1 8 7 12 16 9 21 -3 5 0 9 5 9 6 0 11 -6 11 -12z
m-1150 -23 c0 -15 -78 -13 -98 2 -15 11 -9 13 41 11 31 -2 57 -7 57 -13z m726
-50 c9 -40 -4 -27 -16 15 -6 20 -6 30 -1 24 5 -5 13 -22 17 -39z m304 -5 c5 0
10 8 10 18 0 14 2 15 10 2 13 -20 12 -30 -1 -30 -7 0 -18 -8 -25 -17 -18 -26
-33 -5 -26 37 4 31 6 32 13 12 5 -12 13 -22 19 -22z m-157 10 c3 -11 1 -20 -4
-20 -5 0 -9 9 -9 20 0 11 2 20 4 20 2 0 6 -9 9 -20z m34 -12 c-3 -8 -6 -5 -6
6 -1 11 2 17 5 13 3 -3 4 -12 1 -19z m27 -16 c-18 -17 -13 -25 9 -16 9 3 20
18 25 32 9 25 9 25 9 -10 -1 -29 -5 -38 -18 -38 -10 0 -21 -5 -25 -11 -4 -7
-10 -7 -16 -1 -7 7 -6 22 3 46 8 21 16 31 20 24 4 -6 1 -18 -7 -26z m-78 -18
c0 -9 5 -19 13 -22 8 -2 11 0 8 6 -4 5 -1 15 6 21 11 8 13 5 9 -17 -3 -23 -9
-28 -33 -30 -33 -3 -33 -3 -19 32 11 30 18 34 16 10z"/>
<path d="M3580 1504 c0 -8 5 -12 10 -9 6 4 8 11 5 16 -9 14 -15 11 -15 -7z"/>
<path d="M4002 5448 c16 -28 35 -44 73 -63 29 -15 29 -15 8 1 -13 9 -23 22
-23 28 0 16 -42 56 -58 56 -9 0 -9 -5 0 -22z"/>
<path d="M2590 5165 c0 -18 -16 -20 -23 -2 -3 7 -6 4 -6 -6 -1 -11 -6 -15 -13
-11 -6 4 -8 3 -5 -3 3 -5 19 -8 36 -5 22 3 28 8 24 20 -4 10 -2 13 5 8 6 -3
13 -2 17 4 3 5 -3 10 -14 10 -12 0 -21 -7 -21 -15z"/>
<path d="M4618 5123 c6 -2 18 -2 25 0 6 3 1 5 -13 5 -14 0 -19 -2 -12 -5z"/>
<path d="M4594 5102 c3 -5 26 -9 53 -11 26 -1 45 0 43 2 -10 8 -101 17 -96 9z"/>
<path d="M4581 5077 c3 -4 36 -9 75 -13 38 -4 66 -4 63 -1 -3 4 -36 9 -75 13
-38 4 -66 4 -63 1z"/>
<path d="M4830 4900 c0 -5 19 -10 43 -9 36 1 38 2 17 9 -36 12 -60 12 -60 0z"/>
<path d="M5003 4783 c9 -2 23 -2 30 0 6 3 -1 5 -18 5 -16 0 -22 -2 -12 -5z"/>
<path d="M5013 4743 c9 -2 25 -2 35 0 9 3 1 5 -18 5 -19 0 -27 -2 -17 -5z"/>
<path d="M5005 4710 c11 -5 36 -9 55 -9 28 0 31 2 15 9 -11 5 -36 9 -55 9 -28
0 -31 -2 -15 -9z"/>
<path d="M4990 4672 c0 -4 30 -8 68 -9 43 0 60 2 47 7 -26 11 -115 12 -115 2z"/>
<path d="M4980 4642 c0 -15 19 -19 100 -20 54 -1 68 1 48 7 -46 15 -148 24
-148 13z"/>
<path d="M4980 4601 c0 -6 8 -11 18 -11 9 0 49 -3 87 -6 54 -4 66 -3 52 6 -26
16 -157 26 -157 11z"/>
<path d="M5178 4583 c6 -2 18 -2 25 0 6 3 1 5 -13 5 -14 0 -19 -2 -12 -5z"/>
<path d="M5183 4543 c9 -2 23 -2 30 0 6 3 -1 5 -18 5 -16 0 -22 -2 -12 -5z"/>
<path d="M5168 4503 c6 -2 18 -2 25 0 6 3 1 5 -13 5 -14 0 -19 -2 -12 -5z"/>
<path d="M5150 4470 c0 -6 23 -9 53 -9 44 1 48 2 22 9 -44 11 -75 11 -75 0z"/>
<path d="M5140 4426 c0 -13 13 -16 77 -16 93 0 87 15 -9 25 -58 6 -68 4 -68
-9z"/>
<path d="M5135 4392 c-17 -17 6 -22 98 -21 61 0 94 3 82 8 -24 10 -172 20
-180 13z"/>
<path d="M5124 4351 c-2 -2 -4 -10 -4 -18 0 -10 28 -13 127 -13 158 0 155 17
-6 28 -61 4 -114 6 -117 3z"/>
<path d="M1610 4067 c0 -8 52 -97 85 -145 42 -62 28 -27 -25 59 -51 84 -60 97
-60 86z"/>
<path d="M5345 4020 c-4 -6 15 -10 49 -10 31 0 56 5 56 10 0 6 -22 10 -49 10
-28 0 -53 -4 -56 -10z"/>
<path d="M5385 3981 c-10 -16 14 -23 57 -16 29 5 37 10 27 16 -19 12 -76 11
-84 0z"/>
<path d="M1503 3925 c0 -27 2 -38 4 -22 2 15 2 37 0 50 -2 12 -4 0 -4 -28z"/>
<path d="M5508 3333 c-10 -2 -18 -9 -18 -14 0 -12 3 -12 36 6 28 14 19 18 -18
8z"/>
<path d="M5480 3180 c0 -5 7 -10 15 -10 8 0 15 5 15 10 0 6 -7 10 -15 10 -8 0
-15 -4 -15 -10z"/>
<path d="M5390 3165 c0 -19 27 -26 39 -11 9 11 6 15 -14 18 -16 3 -25 1 -25
-7z"/>
<path d="M5465 3130 c-10 -11 -13 -20 -7 -20 7 0 12 5 12 10 0 6 9 10 21 10
11 0 17 5 14 10 -9 15 -20 12 -40 -10z"/>
<path d="M5460 3085 c-16 -19 0 -19 26 0 16 12 16 14 3 15 -9 0 -22 -7 -29
-15z"/>
<path d="M5464 3046 c-10 -8 -17 -17 -14 -19 3 -3 14 1 24 9 11 7 17 16 15 19
-3 3 -14 -2 -25 -9z"/>
<path d="M5507 2951 c-4 -17 -3 -21 5 -13 5 5 8 16 6 23 -3 8 -7 3 -11 -10z"/>
<path d="M1550 2919 c0 -5 5 -7 10 -4 6 3 10 8 10 11 0 2 -4 4 -10 4 -5 0 -10
-5 -10 -11z"/>
<path d="M5491 2874 c0 -11 3 -14 6 -6 3 7 2 16 -1 19 -3 4 -6 -2 -5 -13z"/>
<path d="M5465 2799 c-4 -6 -5 -12 -2 -15 2 -3 7 2 10 11 7 17 1 20 -8 4z"/>
<path d="M2570 1652 c0 -4 9 -8 20 -9 11 -1 20 2 20 8 0 5 -9 9 -20 9 -11 0
-20 -4 -20 -8z"/>
</g>
</svg>
